<?xml version="1.0" encoding="utf-8"?>
<!-- Generator: Adobe Illustrator 18.1.0, SVG Export Plug-In . SVG Version: 6.00 Build 0)  -->
<svg version="1.1" id="Layer_1" xmlns="http://www.w3.org/2000/svg" xmlns:xlink="http://www.w3.org/1999/xlink" x="0px" y="0px"
	 viewBox="0 0 345.8 108.7" enable-background="new 0 0 345.8 108.7" xml:space="preserve">
<g>
	<defs>
		<rect id="SVGID_1_" x="-37.8" y="-59.7" width="404.8" height="262.9"/>
	</defs>
	<clipPath id="SVGID_2_">
		<use xlink:href="#SVGID_1_"  overflow="visible"/>
	</clipPath>
	<g clip-path="url(#SVGID_2_)">
		<defs>
			<path id="SVGID_3_" d="M54.3,0C30.2,0,9.7,15.8,2.6,37.6c12.5,4.2,40.3,13.7,40.1,14c-0.2,0.5,13.8-25.6,13.8-25.6L54.3,0L54.3,0
				z"/>
		</defs>
		<clipPath id="SVGID_4_">
			<use xlink:href="#SVGID_3_"  overflow="visible"/>
		</clipPath>
		
			<linearGradient id="SVGID_5_" gradientUnits="userSpaceOnUse" x1="-37.79" y1="203.152" x2="-36.79" y2="203.152" gradientTransform="matrix(30.6998 33.6892 -33.6844 30.7042 8012.9897 -4960.1162)">
			<stop  offset="0" style="stop-color:#58030D"/>
			<stop  offset="0.2668" style="stop-color:#58030D"/>
			<stop  offset="1" style="stop-color:#EA4C5A"/>
		</linearGradient>
		<polygon clip-path="url(#SVGID_4_)" fill="url(#SVGID_5_)" points="-23.4,23.7 27.1,79 82.5,28.5 32.1,-26.8 		"/>
	</g>
	<g clip-path="url(#SVGID_2_)">
		<defs>
			<path id="SVGID_6_" d="M42.7,51.7C42.7,51.7,42.7,51.7,42.7,51.7 M42.7,51.7C42.7,51.7,42.7,51.7,42.7,51.7L42.7,51.7
				C42.7,51.7,42.7,51.7,42.7,51.7 M42.7,51.7L42.7,51.7L42.7,51.7z M56.5,26.1c0,0-13.4,25-13.8,25.6c0.4-0.4,41.2-9.2,63.4-13.9
				C99.1,15.9,78.6,0,54.4,0L56.5,26.1z"/>
		</defs>
		<clipPath id="SVGID_7_">
			<use xlink:href="#SVGID_6_"  overflow="visible"/>
		</clipPath>
		
			<linearGradient id="SVGID_8_" gradientUnits="userSpaceOnUse" x1="-37.79" y1="203.152" x2="-36.79" y2="203.152" gradientTransform="matrix(69.862 -83.2701 83.2583 69.8719 -14256.8438 -17247.3066)">
			<stop  offset="0" style="stop-color:#710F12"/>
			<stop  offset="0.6889" style="stop-color:#710F12"/>
			<stop  offset="0.9844" style="stop-color:#E03D4C"/>
			<stop  offset="1" style="stop-color:#E03D4C"/>
		</linearGradient>
		<polygon clip-path="url(#SVGID_7_)" fill="url(#SVGID_8_)" points="79.9,82.9 131.6,21.4 68.9,-31.2 17.3,30.3 		"/>
	</g>
	<g clip-path="url(#SVGID_2_)">
		<defs>
			<path id="SVGID_9_" d="M42.7,51.7c-0.2,0.4,29.4,31.6,43.5,46.6c13.6-9.9,22.4-25.9,22.4-44c0-5.8-0.9-11.4-2.6-16.7
				C82.4,42.8,42.9,51.4,42.7,51.7"/>
		</defs>
		<clipPath id="SVGID_10_">
			<use xlink:href="#SVGID_9_"  overflow="visible"/>
		</clipPath>
		
			<linearGradient id="SVGID_11_" gradientUnits="userSpaceOnUse" x1="-37.79" y1="203.152" x2="-36.79" y2="203.152" gradientTransform="matrix(-39.4758 -22.7946 22.7914 -39.4814 -6010.1719 7248.1626)">
			<stop  offset="0" style="stop-color:#710F12"/>
			<stop  offset="0.3076" style="stop-color:#710F12"/>
			<stop  offset="0.8441" style="stop-color:#F05462"/>
			<stop  offset="1" style="stop-color:#F05462"/>
		</linearGradient>
		<polygon clip-path="url(#SVGID_10_)" fill="url(#SVGID_11_)" points="134.9,52.8 59.1,9 16.3,83.2 92.2,127 		"/>
	</g>
	<g clip-path="url(#SVGID_2_)">
		<defs>
			<path id="SVGID_12_" d="M42.7,51.7C42.6,52,31.3,78,22.5,98.4c9,6.5,20,10.3,31.9,10.3c11.9,0,23-3.8,31.9-10.4l-15-21.5
				C71.2,76.8,43.5,51.7,42.7,51.7C42.8,51.7,42.8,51.7,42.7,51.7"/>
		</defs>
		<clipPath id="SVGID_13_">
			<use xlink:href="#SVGID_12_"  overflow="visible"/>
		</clipPath>
		
			<linearGradient id="SVGID_14_" gradientUnits="userSpaceOnUse" x1="-37.79" y1="203.152" x2="-36.79" y2="203.152" gradientTransform="matrix(0 -45.5816 45.5751 0 -9204.293 -1601.2355)">
			<stop  offset="0" style="stop-color:#F0515E"/>
			<stop  offset="0.3363" style="stop-color:#F0515E"/>
			<stop  offset="1" style="stop-color:#6C0D10"/>
		</linearGradient>
		<rect x="22.5" y="51.7" clip-path="url(#SVGID_13_)" fill="url(#SVGID_14_)" width="63.8" height="57"/>
	</g>
	<g clip-path="url(#SVGID_2_)">
		<defs>
			<path id="SVGID_15_" d="M0,54.3c0,18.1,8.9,34.2,22.5,44.1C31,78.7,42.6,52,42.7,51.7c0.2-0.3-25.5-9.1-40.1-14.1
				C0.9,42.9,0,48.5,0,54.3"/>
		</defs>
		<clipPath id="SVGID_16_">
			<use xlink:href="#SVGID_15_"  overflow="visible"/>
		</clipPath>
		
			<linearGradient id="SVGID_17_" gradientUnits="userSpaceOnUse" x1="-37.79" y1="203.152" x2="-36.79" y2="203.152" gradientTransform="matrix(8.267 46.891 -46.8843 8.2681 9852.5234 126.3505)">
			<stop  offset="0" style="stop-color:#F15B69"/>
			<stop  offset="0.4348" style="stop-color:#F15B69"/>
			<stop  offset="1" style="stop-color:#38000D"/>
		</linearGradient>
		<polygon clip-path="url(#SVGID_16_)" fill="url(#SVGID_17_)" points="-10.4,39.5 1.3,105.8 53.3,96.6 41.6,30.3 		"/>
	</g>
	<g clip-path="url(#SVGID_2_)">
		<defs>
			<rect id="SVGID_18_" x="0" y="0" width="345.8" height="108.7"/>
		</defs>
		<clipPath id="SVGID_19_">
			<use xlink:href="#SVGID_18_"  overflow="visible"/>
		</clipPath>
		<g clip-path="url(#SVGID_19_)">
			<g>
				<defs>
					<rect id="SVGID_20_" x="-37.8" y="-37.8" width="184.3" height="184.3"/>
				</defs>
				<clipPath id="SVGID_21_">
					<use xlink:href="#SVGID_20_"  overflow="visible"/>
				</clipPath>
				<g clip-path="url(#SVGID_21_)">
					<defs>
						<path id="SVGID_22_" d="M8.2,54.3c0-25.5,20.7-46.1,46.1-46.1s46.1,20.7,46.1,46.1c0,25.5-20.7,46.1-46.1,46.1
							S8.2,79.8,8.2,54.3 M54.3,2.2C25.5,2.2,2.2,25.5,2.2,54.3c0,28.7,23.2,52,51.9,52.2h0.6c28.7-0.2,51.9-23.5,51.9-52.2
							C106.5,25.5,83.2,2.2,54.3,2.2z"/>
					</defs>
					<clipPath id="SVGID_23_">
						<use xlink:href="#SVGID_22_"  overflow="visible"/>
					</clipPath>
					<defs>
						<filter id="Adobe_OpacityMaskFilter" filterUnits="userSpaceOnUse" x="-108.4" y="-108.4" width="325.4" height="325.5">
							<feColorMatrix  type="matrix" values="1 0 0 0 0  0 1 0 0 0  0 0 1 0 0  0 0 0 1 0"/>
						</filter>
					</defs>
					<mask maskUnits="userSpaceOnUse" x="-108.4" y="-108.4" width="325.4" height="325.5" id="SVGID_24_">
						<g filter="url(#Adobe_OpacityMaskFilter)">
							<rect x="-37.8" y="-37.8" clip-path="url(#SVGID_23_)" width="184.3" height="184.3"/>
							<g enable-background="new    ">
								<g>
									<defs>
										<polygon id="SVGID_25_" points="-37.8,20.8 20.8,146.5 146.5,87.9 87.9,-37.8 										"/>
									</defs>
									<clipPath id="SVGID_26_" clip-path="url(#SVGID_23_)">
										<use xlink:href="#SVGID_25_"  overflow="visible"/>
									</clipPath>
									
										<linearGradient id="SVGID_27_" gradientUnits="userSpaceOnUse" x1="-37.79" y1="203.152" x2="-36.79" y2="203.152" gradientTransform="matrix(44.1048 94.5965 -94.5831 44.1111 20913.7559 -5379.4019)">
										<stop  offset="0" style="stop-color:#FFFFFF"/>
										<stop  offset="4.415856e-02" style="stop-color:#E2E2E2"/>
										<stop  offset="0.1403" style="stop-color:#989797"/>
										<stop  offset="0.2814" style="stop-color:#231F20"/>
										<stop  offset="1" style="stop-color:#231F20"/>
									</linearGradient>
									<polygon clip-path="url(#SVGID_26_)" fill="url(#SVGID_27_)" points="-108.4,-4.9 -4.9,217.1 217,113.6 113.6,-108.4 
																			"/>
								</g>
							</g>
						</g>
					</mask>
					<g clip-path="url(#SVGID_23_)" mask="url(#SVGID_24_)">
						<g>
							<defs>
								<rect id="SVGID_28_" x="-37.8" y="-37.8" width="184.3" height="184.3"/>
							</defs>
							<clipPath id="SVGID_29_">
								<use xlink:href="#SVGID_28_"  overflow="visible"/>
							</clipPath>
							<g clip-path="url(#SVGID_29_)">
								<defs>
									<polygon id="SVGID_30_" points="87.9,-37.8 146.5,87.9 20.8,146.5 -37.8,20.8 									"/>
								</defs>
								<clipPath id="SVGID_31_">
									<use xlink:href="#SVGID_30_"  overflow="visible"/>
								</clipPath>
								
									<linearGradient id="SVGID_32_" gradientUnits="userSpaceOnUse" x1="-37.79" y1="203.152" x2="-36.79" y2="203.152" gradientTransform="matrix(44.1048 94.5965 -94.5831 44.1111 20913.7578 -5379.4038)">
									<stop  offset="0" style="stop-color:#F1ACAB"/>
									<stop  offset="0.2814" style="stop-color:#F1ACAB"/>
									<stop  offset="1" style="stop-color:#F1ACAB"/>
								</linearGradient>
								<polygon clip-path="url(#SVGID_31_)" fill="url(#SVGID_32_)" points="-108.4,-4.9 -4.9,217.1 217,113.6 113.6,-108.4 
																	"/>
							</g>
						</g>
					</g>
				</g>
			</g>
		</g>
	</g>
	<polygon clip-path="url(#SVGID_2_)" fill="#FFFFFF" points="54.3,75 22.5,98.3 34.7,60.8 2.6,37.6 42.1,37.6 54.3,0 66.4,37.6 
		106,37.6 74,60.8 86.3,98.3 	"/>
	<polygon clip-path="url(#SVGID_2_)" fill="#FFFFFF" points="14.3,36.2 11.9,30.5 13,30.5 14.7,34.9 16.4,30.5 17.5,30.5 15.2,36.2 
			"/>
	<rect x="18.4" y="30.5" clip-path="url(#SVGID_2_)" fill="#FFFFFF" width="1" height="5.7"/>
	<path clip-path="url(#SVGID_2_)" fill="#FFFFFF" d="M22.1,33.9H24l-1-2.3L22.1,33.9z M25,36.2l-0.6-1.4h-2.7l-0.6,1.4h-1l2.5-5.7
		h0.9l2.5,5.7H25z"/>
	<g clip-path="url(#SVGID_2_)">
		<defs>
			<rect id="SVGID_33_" x="0" y="0" width="345.8" height="108.7"/>
		</defs>
		<clipPath id="SVGID_34_">
			<use xlink:href="#SVGID_33_"  overflow="visible"/>
		</clipPath>
		<path clip-path="url(#SVGID_34_)" fill="#FFFFFF" d="M30.4,35.8c0.4-0.3,0.6-0.7,0.6-1.2v0c0-0.5-0.1-0.8-0.4-1.1
			c-0.3-0.3-0.7-0.5-1.4-0.6c-0.5-0.1-0.9-0.3-1.1-0.4c-0.2-0.1-0.3-0.3-0.3-0.5v0c0-0.2,0.1-0.4,0.3-0.5c0.2-0.1,0.4-0.2,0.7-0.2
			c0.5,0,1,0.2,1.5,0.6l0.5-0.8c-0.6-0.5-1.3-0.7-2.1-0.7c-0.6,0-1,0.2-1.4,0.5c-0.4,0.3-0.5,0.7-0.5,1.2v0c0,0.3,0,0.5,0.1,0.7
			c0.1,0.2,0.2,0.3,0.4,0.5c0.2,0.1,0.4,0.2,0.6,0.3c0.2,0.1,0.5,0.2,0.8,0.2c0.5,0.1,0.8,0.2,1,0.4c0.2,0.1,0.3,0.3,0.3,0.5v0
			c0,0.2-0.1,0.4-0.3,0.5c-0.2,0.1-0.4,0.2-0.7,0.2c-0.6,0-1.2-0.2-1.8-0.7l-0.6,0.7c0.7,0.6,1.5,0.9,2.4,0.9
			C29.6,36.2,30.1,36.1,30.4,35.8"/>
		<path clip-path="url(#SVGID_34_)" fill="#FFFFFF" d="M34.3,31.7l1,2.3h-1.9L34.3,31.7z M32.4,36.2l0.6-1.4h2.7l0.6,1.4h1.1
			l-2.5-5.7h-0.9l-2.5,5.7H32.4z"/>
		<polygon clip-path="url(#SVGID_34_)" fill="#FFFFFF" points="39.5,36.2 39.5,31.4 41.2,31.4 41.2,30.5 36.7,30.5 36.7,31.4 
			38.5,31.4 38.5,36.2 		"/>
	</g>
	<g clip-path="url(#SVGID_2_)">
		<defs>
			<path id="SVGID_35_" d="M125.4,51.2v8.3h12.5v32.7h9V59.5h12.5v-8.3H125.4z M192.5,51.2l-10.7,28.9L171,51.2h-10l16.6,41.3h8
				l16.6-41.3H192.5z M225,50.9l-11.8,3.5l1.9,7.4l7.1-1.8v32.2h8.9V50.9H225z M244.9,81.1c-1.7-2.5-2.5-5.6-2.5-9.4v-0.1
				c0-3.8,0.8-6.9,2.5-9.3c1.6-2.4,3.8-3.6,6.4-3.6c2.7,0,4.8,1.2,6.5,3.7c1.7,2.5,2.5,5.6,2.5,9.4v0.1c0,3.8-0.8,6.9-2.4,9.3
				c-1.6,2.4-3.8,3.6-6.5,3.6C248.8,84.8,246.6,83.6,244.9,81.1 M238.3,56.6c-3.4,4-5.1,9.1-5.1,15.2v0.1c0,6.1,1.7,11.1,5,15.1
				c3.4,4,7.7,6,13.1,6c5.4,0,9.8-2,13.2-6.1c3.4-4,5.1-9.1,5.1-15.2v-0.1c0-6-1.7-11-5.1-15.1c-3.4-4-7.7-6-13.1-6
				C246.1,50.5,241.7,52.5,238.3,56.6 M283,81.1c-1.7-2.5-2.5-5.6-2.5-9.4v-0.1c0-3.8,0.8-6.9,2.5-9.3c1.6-2.4,3.8-3.6,6.4-3.6
				c2.7,0,4.8,1.2,6.5,3.7c1.7,2.5,2.5,5.6,2.5,9.4v0.1c0,3.8-0.8,6.9-2.4,9.3c-1.6,2.4-3.8,3.6-6.5,3.6
				C286.9,84.8,284.7,83.6,283,81.1 M276.4,56.6c-3.4,4-5.1,9.1-5.1,15.2v0.1c0,6.1,1.7,11.1,5,15.1c3.4,4,7.7,6,13.1,6
				c5.4,0,9.8-2,13.2-6.1c3.4-4,5.1-9.1,5.1-15.2v-0.1c0-6-1.7-11-5.1-15.1c-3.4-4-7.7-6-13.1-6C284.2,50.5,279.8,52.5,276.4,56.6
				 M321.1,81.1c-1.7-2.5-2.5-5.6-2.5-9.4v-0.1c0-3.8,0.8-6.9,2.5-9.3c1.6-2.4,3.8-3.6,6.4-3.6c2.7,0,4.8,1.2,6.5,3.7
				c1.7,2.5,2.5,5.6,2.5,9.4v0.1c0,3.8-0.8,6.9-2.4,9.3c-1.6,2.4-3.8,3.6-6.5,3.6C324.9,84.8,322.8,83.6,321.1,81.1 M314.5,56.6
				c-3.4,4-5.1,9.1-5.1,15.2v0.1c0,6.1,1.7,11.1,5,15.1c3.4,4,7.7,6,13.1,6c5.4,0,9.8-2,13.2-6.1c3.4-4,5.1-9.1,5.1-15.2v-0.1
				c0-6-1.7-11-5.1-15.1c-3.4-4-7.7-6-13.1-6C322.3,50.5,317.9,52.5,314.5,56.6"/>
		</defs>
		<clipPath id="SVGID_36_">
			<use xlink:href="#SVGID_35_"  overflow="visible"/>
		</clipPath>
		
			<linearGradient id="SVGID_37_" gradientUnits="userSpaceOnUse" x1="-37.79" y1="203.152" x2="-36.79" y2="203.152" gradientTransform="matrix(233.766 -233.7992 233.766 233.7992 -38510.3516 -56170.375)">
			<stop  offset="0" style="stop-color:#D01C52"/>
			<stop  offset="0.1566" style="stop-color:#D01C52"/>
			<stop  offset="0.2723" style="stop-color:#B21645"/>
			<stop  offset="0.5228" style="stop-color:#660823"/>
			<stop  offset="0.6583" style="stop-color:#3A000F"/>
			<stop  offset="1" style="stop-color:#3A000F"/>
		</linearGradient>
		<polygon clip-path="url(#SVGID_36_)" fill="url(#SVGID_37_)" points="235.6,203.2 367,71.7 235.6,-59.7 104.2,71.7 		"/>
	</g>
	<g clip-path="url(#SVGID_2_)">
		<defs>
			<path id="SVGID_38_" d="M197.8,46.4h5.4V21.9h-5.4V46.4z M174.9,21.9v5h7.4v19.5h5.4V26.9h7.4v-5H174.9z M250.5,21.9V37
				l-11.5-15.1h-5v24.5h5.3V30.8l11.8,15.5h4.6V21.9H250.5z M138.3,28.2l3.2,7.9H135L138.3,28.2z M135.9,21.7l-10.5,24.6h5.5
				l2.2-5.5h10.3l2.2,5.5h5.6l-10.5-24.6H135.9z M153.8,25.2c-2.4,2.4-3.6,5.4-3.6,9v0.1c0,3.5,1.2,6.5,3.6,8.9
				c2.4,2.4,5.4,3.6,9,3.6c2.2,0,4.1-0.4,5.7-1.1c1.5-0.7,3-1.8,4.4-3.3l-3.4-3.5c-1.1,1-2.1,1.7-3,2.2c-1,0.5-2.1,0.7-3.4,0.7
				c-2.1,0-3.7-0.7-5.1-2.2c-1.3-1.5-2-3.3-2-5.5v-0.1c0-2.1,0.7-3.9,2-5.4c1.4-1.5,3-2.2,5.1-2.2c2.1,0,4.2,0.9,6.3,2.8l3.4-3.9
				c-1.2-1.2-2.6-2.2-4.1-2.8c-1.5-0.6-3.4-1-5.5-1C159.3,21.5,156.2,22.7,153.8,25.2 M213.4,39.6c-1.4-1.5-2.1-3.3-2.1-5.5v-0.1
				c0-2.1,0.7-3.9,2.1-5.4c1.4-1.5,3.1-2.2,5.3-2.2c2.1,0,3.9,0.7,5.3,2.2c1.4,1.5,2.1,3.3,2.1,5.5v0.1c0,2.1-0.7,3.9-2.1,5.4
				c-1.4,1.5-3.1,2.2-5.3,2.2C216.5,41.8,214.8,41.1,213.4,39.6 M209.4,25.2c-2.5,2.5-3.7,5.4-3.7,9v0.1c0,3.5,1.2,6.5,3.7,8.9
				c2.5,2.4,5.5,3.7,9.3,3.7c3.7,0,6.8-1.2,9.3-3.7c2.5-2.5,3.7-5.4,3.7-9v-0.1c0-3.5-1.2-6.5-3.7-8.9c-2.5-2.4-5.5-3.7-9.3-3.7
				C215,21.5,211.8,22.7,209.4,25.2"/>
		</defs>
		<clipPath id="SVGID_39_">
			<use xlink:href="#SVGID_38_"  overflow="visible"/>
		</clipPath>
		
			<linearGradient id="SVGID_40_" gradientUnits="userSpaceOnUse" x1="-37.79" y1="203.152" x2="-36.79" y2="203.152" gradientTransform="matrix(233.766 -233.7992 233.766 233.7992 -38551.6211 -56211.6523)">
			<stop  offset="0" style="stop-color:#D01C52"/>
			<stop  offset="0.1566" style="stop-color:#D01C52"/>
			<stop  offset="0.2723" style="stop-color:#B21645"/>
			<stop  offset="0.5228" style="stop-color:#660823"/>
			<stop  offset="0.6583" style="stop-color:#3A000F"/>
			<stop  offset="1" style="stop-color:#3A000F"/>
		</linearGradient>
		<polygon clip-path="url(#SVGID_39_)" fill="url(#SVGID_40_)" points="190.6,112 268.5,34.1 190.6,-43.7 112.8,34.1 		"/>
	</g>
</g>
</svg>
