<?xml version="1.0" encoding="utf-8"?>
<!-- Generator: Avocode 2.6.0 - http://avocode.com -->
<svg height="13" width="12" xmlns:xlink="http://www.w3.org/1999/xlink" xmlns="http://www.w3.org/2000/svg" viewBox="0 0 12 13">
    <path fill="#dadada" fill-rule="evenodd" d="M 7.4 12.69 C 7.4 12.69 11.82 7.07 11.82 7.07 C 12.07 6.75 12.06 6.25 11.82 5.94 C 11.82 5.94 7.4 0.32 7.4 0.32 C 7.26 0.14 7.06 0.02 6.83 0 C 6.61 -0.02 6.39 0.05 6.22 0.2 C 6.03 0.37 5.92 0.62 5.92 0.88 C 5.92 1.09 5.99 1.29 6.12 1.45 C 6.12 1.45 9.4 5.62 9.4 5.62 C 9.4 5.62 0.84 5.61 0.84 5.61 C 0.38 5.61 0 6.01 0 6.5 C 0 6.5 0 6.5 0 6.5 C 0 6.98 0.38 7.38 0.84 7.38 C 0.84 7.38 9.39 7.39 9.39 7.39 C 9.39 7.39 6.12 11.56 6.12 11.56 C 5.99 11.71 5.92 11.91 5.92 12.12 C 5.92 12.38 6.03 12.63 6.22 12.8 C 6.39 12.95 6.61 13.02 6.83 13 C 7.06 12.98 7.26 12.87 7.4 12.69 Z" />
</svg>