<svg xmlns="http://www.w3.org/2000/svg" xmlns:xlink="http://www.w3.org/1999/xlink" preserveAspectRatio="xMidYMid" width="17.88" height="17.874" viewBox="0 0 17.88 17.874">
  <defs>
    <style>
      .cls-1 {
        fill: #353535;
        fill-rule: evenodd;
      }
    </style>
  </defs>
  <path d="M17.603,16.260 L14.236,12.893 C15.305,11.537 15.942,9.829 15.942,7.976 C15.942,3.584 12.371,0.010 7.978,0.010 C3.586,0.010 0.015,3.584 0.015,7.976 C0.015,12.366 3.586,15.940 7.978,15.940 C9.834,15.940 11.544,15.300 12.898,14.232 L16.265,17.600 C16.450,17.783 16.692,17.875 16.934,17.875 C17.176,17.875 17.418,17.783 17.603,17.600 C17.973,17.230 17.973,16.630 17.603,16.260 ZM7.978,14.047 C4.632,14.047 1.908,11.323 1.908,7.976 C1.908,4.627 4.632,1.902 7.978,1.902 C11.327,1.902 14.049,4.627 14.049,7.976 C14.049,11.323 11.327,14.047 7.978,14.047 Z" class="cls-1"/>
</svg>
