<?xml version="1.0" encoding="utf-8"?>
<!-- Generator: Avocode 2.6.0 - http://avocode.com -->
<svg height="14" width="12" xmlns:xlink="http://www.w3.org/1999/xlink" xmlns="http://www.w3.org/2000/svg" viewBox="0 0 12 14">
    <path fill="#fff" fill-rule="evenodd" d="M 4.6 0.54 C 4.6 0.54 0.19 6.15 0.19 6.15 C -0.06 6.47 -0.06 6.97 0.19 7.28 C 0.19 7.28 4.6 12.9 4.6 12.9 C 4.74 13.08 4.94 13.19 5.17 13.21 C 5.39 13.23 5.6 13.16 5.78 13.01 C 5.97 12.84 6.08 12.59 6.08 12.33 C 6.08 12.13 6.01 11.93 5.88 11.77 C 5.88 11.77 2.6 7.6 2.6 7.6 C 2.6 7.6 11.16 7.61 11.16 7.61 C 11.62 7.61 12 7.21 12 6.72 C 12 6.72 12 6.72 12 6.72 C 12 6.24 11.63 5.84 11.16 5.84 C 11.16 5.84 2.61 5.83 2.61 5.83 C 2.61 5.83 5.88 1.67 5.88 1.67 C 6.01 1.51 6.08 1.31 6.08 1.1 C 6.08 0.84 5.97 0.59 5.78 0.42 C 5.6 0.27 5.39 0.2 5.17 0.22 C 4.94 0.24 4.74 0.36 4.6 0.54 Z" />
</svg>