<?xml version="1.0" encoding="UTF-8"?><!DOCTYPE svg PUBLIC "-//W3C//DTD SVG 1.1//EN" "http://www.w3.org/Graphics/SVG/1.1/DTD/svg11.dtd"><svg xmlns="http://www.w3.org/2000/svg"><defs>
        <style>
            .cls-1{fill:#fff;fill-rule:evenodd}
        </style>
    </defs><symbol id="icon-arr-left" viewBox="0 0 12 14">
    <path fill-rule="evenodd" d="M4.6.54L.19 6.15c-.25.32-.25.82 0 1.13L4.6 12.9c.14.18.34.29.57.31.22.02.43-.05.61-.2.19-.17.3-.42.3-.68 0-.2-.07-.4-.2-.56L2.6 7.6l8.56.01c.46 0 .84-.4.84-.89 0-.48-.37-.88-.84-.88l-8.55-.01 3.27-4.16a.916.916 0 0 0-.1-1.25.822.822 0 0 0-.61-.2.81.81 0 0 0-.57.32z"/>
</symbol><symbol id="icon-arr-right" viewBox="0 0 12 13">
    <path fill-rule="evenodd" d="M7.4 12.69l4.42-5.62a.96.96 0 0 0 0-1.13L7.4.32A.81.81 0 0 0 6.83 0a.809.809 0 0 0-.61.2.916.916 0 0 0-.1 1.25L9.4 5.62.84 5.61c-.46 0-.84.4-.84.89 0 .48.38.88.84.88l8.55.01-3.27 4.17c-.13.15-.2.35-.2.56 0 .26.11.51.3.68.17.15.39.22.61.2.23-.02.43-.13.57-.31z"/>
</symbol><symbol id="icon-back" viewBox="0 0 512 512">
    <path d="M226.057 105.557v81.619l19.701.194c136.853 1.321 213.945 62.191 234.025 185.542-75.179-86.962-161.868-87-233.821-87.02h-19.905v80.92L41.634 236.175l184.423-130.618m19.895-38.487L7.216 236.175 245.952 405.28v-99.493c95.549.039 184.133 4.857 259.048 138.447 0-84.844-14.018-274.387-259.048-276.758V67.07z"/>
</symbol><symbol id="icon-bell" viewBox="0 0 26 23">
    <path fill-rule="evenodd" d="M25.23 10.2l-.89.01a.29.29 0 0 1-.29-.29 9.637 9.637 0 0 0-5.69-8.43.29.29 0 0 1-.16-.38l.34-.82c.06-.15.24-.23.39-.16 3.88 1.71 6.46 5.53 6.59 9.77.01.16-.13.3-.29.3zm-2.66-.29c.01.17-.13.31-.3.31h-.88c-.16 0-.29-.12-.3-.28a6.65 6.65 0 0 0-3.85-5.71.306.306 0 0 1-.16-.39l.34-.82c.06-.15.24-.23.39-.16a8.154 8.154 0 0 1 4.76 7.05zM20 11.62v3.01l1.58 1.62c.14.14.22.33.22.53v2.29c0 .41-.34.74-.75.74h-4.96c0 1.64-1.45 3.09-3.09 3.09s-3.09-1.45-3.09-3.09H4.95c-.41 0-.75-.33-.75-.74v-2.29c0-.2.08-.39.22-.53L6 14.63v-3.01c0-2.99 1.77-5.56 4.42-6.6.27-1.2 1.32-2.1 2.58-2.1s2.31.9 2.58 2.1C18.23 6.06 20 8.63 20 11.62zm-7 9.79c.88 0 1.6-.83 1.6-1.6h-3.2c0 .77.72 1.6 1.6 1.6zm1.15-15.27v-.53c0-.64-.51-1.2-1.15-1.2-.64 0-1.15.56-1.15 1.2v.53c-2.57.54-4.36 2.77-4.36 5.48v3.61l-1.8 1.84v1.25h14.62v-1.25l-1.8-1.84v-3.61c0-2.71-1.79-4.94-4.36-5.48zm-9.24 3.8c-.01.16-.14.28-.3.28h-.88c-.17 0-.31-.14-.3-.31a8.154 8.154 0 0 1 4.76-7.05c.15-.07.33.01.39.16l.34.82c.06.15-.01.32-.16.39a6.65 6.65 0 0 0-3.85 5.71zm-2.96-.02c0 .16-.13.29-.29.29l-.89-.01c-.16 0-.3-.14-.3-.3.14-4.24 2.72-8.06 6.6-9.77.15-.07.33.01.39.16l.33.82c.07.15 0 .32-.15.38a9.637 9.637 0 0 0-5.69 8.43z"/>
</symbol><symbol id="icon-check" viewBox="0 0 32 32">
    <path clip-rule="evenodd" d="M27.704 8.397a1.016 1.016 0 0 0-1.428 0L11.988 22.59l-6.282-6.193a1.016 1.016 0 0 0-1.428 0 .994.994 0 0 0 0 1.414l6.999 6.899c.39.386 1.039.386 1.429 0L27.704 9.811a.992.992 0 0 0 0-1.414c-.394-.391.395.39 0 0z" fill-rule="evenodd"/>
</symbol><symbol id="icon-clock" viewBox="0 0 30 29">
    <path opacity=".28" fill-rule="evenodd" d="M15 29C6.99 29 .5 22.51.5 14.5S6.99 0 15 0s14.5 6.49 14.5 14.5S23.01 29 15 29zm.52-26.4v3.1h-1.73V2.6C8.61 3.02 3.52 8.11 3.1 13.98h2.06v1.73H3.1c.42 5.18 5.51 10.27 10.69 10.69v-2.06h1.73v2.06c5.87-.42 10.96-5.51 11.38-10.69h-3.1v-1.73h3.1C26.48 8.11 21.39 3.02 15.52 2.6zm1.04 11.97c0 .9-.73 1.64-1.63 1.64-.84 0-1.52-.64-1.62-1.45L9.28 9.42l5.11 3.61c.17-.05.35-.09.54-.09.03 0 .06 0 .09.01l7.76-6.34-6.25 7.62c.02.11.03.22.03.34z"/>
</symbol><symbol id="icon-close" viewBox="0 0 15.41 15.407">
    
    <path d="M15.408 14.213l-1.186 1.185-6.518-6.519-6.524 6.524-1.185-1.186 6.523-6.523L.004 1.18 1.19-.006l6.514 6.514 6.509-6.509 1.185 1.185-6.509 6.51 6.519 6.519z" class="cls-1"/>
</symbol><symbol id="icon-download" viewBox="0 0 32 27">
    <title>
        Download
    </title>
    <g fill-rule="evenodd">
        <path d="M31 25H1c-1 0-1 1-1 1a1 1 0 0 0 1 1h30a1 1 0 0 0 1-1s0-1-1-1z"/>
        <path d="M15.27 23.707c.389.385 1.04.389 1.429 0l6.999-6.9a.993.993 0 0 0 0-1.414 1.016 1.016 0 0 0-1.428 0l-5.275 5.2V1c0-.552-.452-1-1.01-1s-1.01.448-1.01 1v19.593l-5.275-5.2a1.016 1.016 0 0 0-1.428 0 .992.992 0 0 0 0 1.414l6.998 6.9z"/>
    </g>
</symbol><symbol id="icon-edit" viewBox="0 0 47 47">
    <title>
        edit
    </title>
    <g fill-rule="evenodd">
        <path stroke-width="2" d="M41.948 10.532L9.489 42.99 2 45l2.009-7.489L36.468 5.052"/>
        <path d="M44.749 9.134l.824-.825a4.868 4.868 0 1 0-6.883-6.883l-.825.825 6.884 6.883z"/>
        <path d="M4.191 37.328l5.481 5.481-7.198 1.717z"/>
    </g>
</symbol><symbol id="icon-fb" viewBox="0 0 14 25">
    <path fill-rule="evenodd" d="M13.41 4.63h-1.92c-1.91 0-2.87.93-2.87 2.78v1.85h4.79l-.96 4.62H8.62v11.11h-4.8V13.88H-.01V9.26h3.83V6.48C3.82 2.67 6.05.01 9.57.01h3.84v4.62z"/>
</symbol><symbol id="icon-hd" viewBox="0 0 87 60">
    <path fill-rule="evenodd" d="M83.18 50.53H49.65v5.14h9.46v4.28H28.16v-4.28h9.46v-5.14H4.09.65V47.1 3.42-.01h85.97v50.54h-3.44zm0-47.11H4.09V47.1h79.09V3.42zM29.96 23.33h7.62v-7.44h4.06V35.4h-4.06v-8.71h-7.62v8.71H25.9V15.89h4.06v7.44zm27.09-7.02c1.38.45 2.49 1.28 3.34 2.48.68.97 1.15 2.02 1.4 3.15.24 1.13.37 2.2.37 3.23 0 2.59-.52 4.79-1.57 6.59-1.42 2.43-3.61 3.64-6.57 3.64h-8.44V15.89h8.44c1.22.02 2.23.16 3.03.42zm-7.5 2.97v12.73h3.78c1.93 0 3.28-.95 4.05-2.84.41-1.04.62-2.29.62-3.72 0-1.99-.31-3.51-.94-4.58-.62-1.06-1.87-1.59-3.73-1.59h-3.78z"/>
</symbol><symbol id="icon-instagram" viewBox="0 0 35 35">
    <title>
        Slice 1
    </title>
    <path d="M9.767 12.23H.692v-1.153 18.077c0 5 5 5 5 5h23.462s5 0 5-5V11.077h-9.807a8.64 8.64 0 0 0-6.924-3.462 8.64 8.64 0 0 0-6.924 3.462H.692V5.692c0-3.156 1.992-4.32 3.462-4.749v6.672h1.154V.717c.24-.025.384-.025.384-.025h23.462s5 0 5 5v6.539h-9.075a8.654 8.654 0 1 1-15.311 0zM28.08 3a2.005 2.005 0 0 0-2.002 2.002v1.766c0 1.105.901 2.001 2.002 2.001h1.766a2.005 2.005 0 0 0 2.001-2.001V5.002A2.005 2.005 0 0 0 29.845 3h-1.766zM8.769.692v6.923h1.154V.692H8.77zm-2.307 0v6.923h1.153V.692H6.462zm10.961 22.5a6.923 6.923 0 1 0 0-13.846 6.923 6.923 0 0 0 0 13.846zm0-2.307a4.615 4.615 0 1 0 0-9.231 4.615 4.615 0 0 0 0 9.23z" fill-rule="evenodd"/>
</symbol><symbol id="icon-left" viewBox="0 0 512 512">
    <g>
        <path d="M129 266.5c2.6 0 5.3-1 7.3-3L390.3 18c4.2-4 4.3-10.7.3-14.9-4-4.2-10.7-4.3-14.9-.3l-254 245.5c-4.2 4-4.3 10.7-.3 14.9 2.1 2.3 4.8 3.3 7.6 3.3z"/>
        <path d="M383 512c2.8 0 5.5-1.1 7.6-3.2 4-4.2 3.9-10.9-.3-14.9l-254-245.5c-4.2-4-10.9-3.9-14.9.3s-3.9 10.9.3 14.9l254 245.5c2 1.9 4.7 2.9 7.3 2.9z"/>
    </g>
</symbol><symbol id="icon-like" viewBox="0 0 20 18">
    <path fill-rule="evenodd" d="M0 18.01V6.72h4.17v11.29H0zm5.56 0V6.72c.83 0 1.4-.27 1.95-.84.56-.56 2.32-4.18 2.74-4.88.41-.71 1.13-1.12 1.82-.98.69.29 1.09 1.01.95 1.86-.27.7-.51 2.73-.51 3.43 0 .71.55 1.41 1.39 1.41h4.16c.84 0 1.39.57 1.39 1.41l-2.91 9.04c-.14.43-.7.84-1.25.84H5.56z"/>
</symbol><symbol id="icon-menu-blog" viewBox="-15 20 18 12">
    <path d="M-10 27v-2H3v2h-13zm0-7H3v2h-13v-2zm-5 5h3v2h-3v-2zm0-5h3v2h-3v-2zm3 12h-3v-2h3v2zm15 0h-13v-2H3v2z"/>
</symbol><symbol id="icon-menu" viewBox="0 0 18 12">
    <path fill-rule="evenodd" d="M0 12h18v-2H0v2zm0-5h18V5H0v2zm0-7v2h18V0H0z"/>
</symbol><symbol id="icon-mute" viewBox="0 0 59 59">
    <path fill-rule="evenodd" d="M29.4 58.05C13.41 58.05.39 45.07.39 29.13.39 13.18 13.41.2 29.4.2c16 0 29.02 12.98 29.02 28.93 0 15.94-13.02 28.92-29.02 28.92zm0-55.64C14.63 2.41 2.61 14.4 2.61 29.13c0 14.73 12.02 26.71 26.79 26.71 14.78 0 26.8-11.98 26.8-26.71S44.18 2.41 29.4 2.41zm14.14 15.82l1.81-.38v21.41l-1.81-.38V18.23zm-16.07 3.39l14.55-3.07v20l-5.27-1.11-9.28-15.82zm11.62 24.4l-.62.36c-.7.41-1.61.17-2.02-.53l-18.54-31.6c-.41-.7-.17-1.61.53-2.02l.62-.36c.7-.41 1.61-.17 2.02.53l18.54 31.61c.41.7.17 1.6-.53 2.01zm-9.43-10.08l-14.9-3.14v-8.49l7.18-1.52 7.72 13.15zM11.34 25.03l1.9-.4v7.84l-1.9-.4v-7.04zm5.3 8.96l1.57.33-.09.54c-.23 1.32.55 2.58 1.73 2.83l6.14 1.28c1.18.24 2.32-.63 2.54-1.94l.09-.52 1.57.34-.09.51c-.38 2.28-2.36 3.78-4.4 3.35l-6.14-1.28c-2.05-.42-3.4-2.62-3.02-4.89l.1-.55z"/>
</symbol><symbol id="icon-odnoklassniki" viewBox="0 0 30 30">
    <path d="M22 15c-1 0-3 2-7 2s-6-2-7-2a2 2 0 0 0-2 2c0 1 .568 1.481 1 1.734C8.185 19.427 12 21 12 21l-4.25 5.438S7 27.373 7 28a2 2 0 0 0 2 2c1.021 0 1.484-.656 1.484-.656S14.993 23.993 15 24c.007-.007 4.516 5.344 4.516 5.344S19.979 30 21 30a2 2 0 0 0 2-2c0-.627-.75-1.562-.75-1.562L18 21s3.815-1.573 5-2.266c.432-.253 1-.734 1-1.734a2 2 0 0 0-2-2z"/>
    <path d="M15 0a7 7 0 1 0 0 14 7 7 0 0 0 0-14zm0 10.5a3.5 3.5 0 1 1-.001-6.999A3.5 3.5 0 0 1 15 10.5z"/>
</symbol><symbol id="icon-premiere" viewBox="0 0 82 60">
    <path fill-rule="evenodd" d="M77.01 12.62v47.35h-3.38v-2.21H8.85v2.21H5.48V12.62C2.76 11.87.76 9.4.76 6.44.76 2.88 3.62 0 7.17 0c3.54 0 6.41 2.88 6.41 6.44 0 2.96-2.01 5.43-4.73 6.18v1.8c1.45 1.48 7.02 6.74 15.36 10.4v-6.4c-1.32-.62-2.2-1.93-2.2-3.51 0-2.21 1.69-3.9 3.88-3.9 2.2 0 3.88 1.69 3.88 3.9 0 1.54-.84 2.81-2.1 3.45 2.7 2.46 14.02 11.38 27.01-.08a3.824 3.824 0 0 1-1.96-3.37c0-2.21 1.68-3.9 3.88-3.9 2.19 0 3.88 1.69 3.88 3.9 0 1.58-.89 2.89-2.2 3.51v6.34c4.94-2.21 10.09-5.52 15.35-10.27v-1.87c-2.71-.75-4.72-3.22-4.72-6.18 0-3.56 2.87-6.44 6.41-6.44s6.41 2.88 6.41 6.44c0 2.96-2 5.43-4.72 6.18zM64.36 54.38L46.81 41.16h-9.78L18.3 54.38h46.06zM10.2 6.44c0-1.7-1.35-3.05-3.03-3.05-1.69 0-3.04 1.35-3.04 3.05 0 1.69 1.35 3.05 3.04 3.05 1.68 0 3.03-1.36 3.03-3.05zm15.69 7.96c-.34 0-.5.17-.5.51 0 .33.16.5.5.5.34 0 .51-.17.51-.5 0-.34-.17-.51-.51-.51zm29.02 8.1c-4.9 3.55-9.53 4.77-13.67 4.77-5.94 0-10.75-2.62-13.66-4.72v3.6c7.56 2.64 16.93 3.68 27.33-.03V22.5zm1.69-8.1c-.34 0-.51.17-.51.51 0 .33.17.5.51.5.33 0 .5-.17.5-.5 0-.34-.17-.51-.5-.51zm1.68 14.05v10.68h-3.37V29.7c-4.65 1.51-9.12 2.15-13.33 2.15-5.08 0-9.78-.92-14-2.31v9.59h-3.37V28.31c-6.96-2.83-12.31-6.72-15.36-9.27v38l27-19.26h12.14l25.64 19.35V19.05c-5.27 4.33-10.4 7.37-15.35 9.4zM75.32 3.39c-1.69 0-3.04 1.35-3.04 3.05 0 1.69 1.35 3.05 3.04 3.05s3.04-1.36 3.04-3.05c0-1.7-1.35-3.05-3.04-3.05z"/>
</symbol><symbol id="icon-right" viewBox="0 0 512 512">
    <g>
        <path d="M383 266.5c-2.6 0-5.3-1-7.3-3L121.7 18c-4.2-4-4.3-10.7-.3-14.9 4-4.2 10.7-4.3 14.9-.3l254 245.5c4.2 4 4.3 10.7.3 14.9-2.1 2.3-4.8 3.3-7.6 3.3z"/>
        <path d="M129 512c-2.8 0-5.5-1.1-7.6-3.2-4-4.2-3.9-10.9.3-14.9l254-245.5c4.2-4 10.9-3.9 14.9.3s3.9 10.9-.3 14.9L136.3 509c-2 2-4.7 3-7.3 3z"/>
    </g>
</symbol><symbol id="icon-rounds" viewBox="0 0 56 55">
    <path fill-rule="evenodd" d="M47.98 35.33a7.85 7.85 0 0 1-7.85-7.85c0-4.34 3.51-7.85 7.85-7.85s7.85 3.51 7.85 7.85a7.85 7.85 0 0 1-7.85 7.85zm0-13.74c-3.25 0-5.89 2.64-5.89 5.89 0 3.24 2.64 5.88 5.89 5.88 3.25 0 5.89-2.64 5.89-5.88 0-3.25-2.64-5.89-5.89-5.89zm0-5.89a7.85 7.85 0 0 1-7.85-7.85c0-4.34 3.51-7.85 7.85-7.85s7.85 3.51 7.85 7.85a7.85 7.85 0 0 1-7.85 7.85zm0-13.74c-3.25 0-5.89 2.64-5.89 5.89 0 3.24 2.64 5.89 5.89 5.89 3.25 0 5.89-2.65 5.89-5.89 0-3.25-2.64-5.89-5.89-5.89zm-19.64 53c-4.33 0-7.85-3.52-7.85-7.85 0-4.34 3.52-7.86 7.85-7.86 4.34 0 7.86 3.52 7.86 7.86 0 4.33-3.52 7.85-7.86 7.85zm0-13.74c-3.24 0-5.89 2.64-5.89 5.89 0 3.24 2.65 5.88 5.89 5.88 3.25 0 5.89-2.64 5.89-5.88 0-3.25-2.64-5.89-5.89-5.89zm0-5.89c-4.33 0-7.85-3.52-7.85-7.85a7.85 7.85 0 0 1 7.85-7.85c4.34 0 7.86 3.51 7.86 7.85 0 4.33-3.52 7.85-7.86 7.85zm0-13.74c-3.24 0-5.89 2.64-5.89 5.89 0 3.24 2.65 5.88 5.89 5.88 3.25 0 5.89-2.64 5.89-5.88 0-3.25-2.64-5.89-5.89-5.89zm0-5.89c-4.33 0-7.85-3.52-7.85-7.85A7.85 7.85 0 0 1 28.34 0c4.34 0 7.86 3.51 7.86 7.85 0 4.33-3.52 7.85-7.86 7.85zm0-13.74c-3.24 0-5.89 2.64-5.89 5.89 0 3.24 2.65 5.89 5.89 5.89 3.25 0 5.89-2.65 5.89-5.89 0-3.25-2.64-5.89-5.89-5.89zm-19.63 53c-4.34 0-7.86-3.52-7.86-7.85 0-4.34 3.52-7.86 7.86-7.86s7.85 3.52 7.85 7.86c0 4.33-3.52 7.85-7.85 7.85zm0-13.74c-3.25 0-5.89 2.64-5.89 5.89 0 3.24 2.64 5.88 5.89 5.88 3.25 0 5.89-2.64 5.89-5.88 0-3.25-2.65-5.89-5.89-5.89zm0-5.89c-4.34 0-7.86-3.52-7.86-7.85 0-4.34 3.52-7.85 7.86-7.85s7.85 3.51 7.85 7.85c0 4.33-3.52 7.85-7.85 7.85zm0-13.74c-3.25 0-5.89 2.64-5.89 5.89 0 3.24 2.64 5.88 5.89 5.88 3.25 0 5.89-2.64 5.89-5.88 0-3.25-2.65-5.89-5.89-5.89zm0-5.89C4.37 15.7.85 12.18.85 7.85.85 3.51 4.37 0 8.71 0s7.85 3.51 7.85 7.85c0 4.33-3.52 7.85-7.85 7.85zm0-13.74c-3.25 0-5.89 2.64-5.89 5.89 0 3.24 2.64 5.89 5.89 5.89 3.25 0 5.89-2.65 5.89-5.89 0-3.25-2.65-5.89-5.89-5.89zm39.27 37.29c4.34 0 7.85 3.52 7.85 7.86a7.85 7.85 0 0 1-15.7 0c0-4.34 3.51-7.86 7.85-7.86z"/>
</symbol><symbol id="icon-search" viewBox="-14.9 16.9 17.9 17.9">
    <path d="M2.7 33.2l-3.4-3.4c1.1-1.3 1.7-3 1.7-4.9 0-4.4-3.6-8-8-8s-8 3.6-8 8 3.6 8 8 8c1.9 0 3.6-.6 4.9-1.7l3.4 3.4c.2.2.4.3.7.3.2 0 .5-.1.7-.3.3-.4.3-1 0-1.4zM-7 31c-3.3 0-6.1-2.7-6.1-6.1 0-3.3 2.7-6.1 6.1-6.1 3.3 0 6.1 2.7 6.1 6.1C-.9 28.3-3.6 31-7 31z"/>
</symbol><symbol id="icon-sound" viewBox="0 0 89 47">
    <path fill-rule="evenodd" d="M43.36 46.94h-4.18V-.03h4.18v46.97M32.74 8.51h4.23v29.82h-4.23V8.51m17.15 29.85h-4.22V8.53h4.22v29.83M19.88 12.79h4.17v21.26h-4.17V12.79m36.42 2.16v16.98h-4.22V14.95h4.22m19.29 16.98h-4.17V14.95h4.17v16.98m-57.98-2.14h-4.17V17.1h4.17v12.69m12.9-12.69v12.69H26.3V17.1h4.21m32.26 12.69h-4.21V17.1h4.21v12.69m15.08-1.07V18.16h4.23v10.56h-4.23m-66.66-1.07H6.96v-8.41h4.23v8.41m58.03 0h-4.21v-8.41h4.21v8.41M.54 21.36h4.23v4.15H.54v-4.15m87.98.01v4.14H84.3v-4.14h4.22"/>
</symbol><symbol id="icon-star-empty" viewBox="0 0 512 512">
    <path d="M480 207H308.6L256 47.9 203.4 207H32l140.2 97.9L117.6 464 256 365.4 394.4 464l-54.7-159.1L480 207zM362.6 421.2l-106.6-76-106.6 76L192 298.7 84 224h131l41-123.3L297 224h131l-108 74.6 42.6 122.6z"/>
</symbol><symbol id="icon-star-full" viewBox="0 0 24 24">
    <title/>
    <g fill-rule="evenodd">
        <path d="M11.985 18.136L5.187 23l2.35-8.012L1 9.562l7.95-.069L11.985 1l2.951 8.562H23l-6.567 5.478 2.35 7.96-6.798-4.864z"/>
    </g>
</symbol><symbol id="icon-star" viewBox="0 0 15 15">
    <path fill-rule="evenodd" d="M7.5 0C3.36 0 0 3.36 0 7.5 0 11.64 3.36 15 7.5 15c4.14 0 7.5-3.36 7.5-7.5C15 3.36 11.64 0 7.5 0zm2.79 11.43L7.5 9.96l-2.79 1.47.54-3.11L3 6.14l3.11-.46L7.5 2.86l1.39 2.82 3.11.46-2.25 2.18.54 3.11z"/>
</symbol><symbol id="icon-top" viewBox="0 0 20 11">
    <title>
        Expand_Less
    </title>
    <path d="M10.714.297a1.02 1.02 0 0 0-1.429 0L.286 9.273a1.008 1.008 0 1 0 1.428 1.426L10 2.436l8.285 8.264a1.012 1.012 0 0 0 1.429 0 1.008 1.008 0 0 0 0-1.426l-9-8.977z" fill-rule="evenodd"/>
</symbol><symbol id="icon-trash" viewBox="0 0 32 32">
    <g clip-rule="evenodd" fill-rule="evenodd">
        <path d="M29.98 6.819A2.99 2.99 0 0 0 27 4.003h-3V3.001a3 3 0 0 0-3-3H11a3 3 0 0 0-3 3v1.001H5a2.99 2.99 0 0 0-2.981 2.816H2v2.183a2 2 0 0 0 2 2v17a4 4 0 0 0 4 4h16a4 4 0 0 0 4-4v-17a2 2 0 0 0 2-2V6.819h-.02zM10 3.002a1 1 0 0 1 1-1h10a1 1 0 0 1 1 1v1H10v-1zm16 25c0 1.102-.898 2-2 2H8c-1.103 0-2-.898-2-2v-17h20v17zm2-20.001v1H4V7.002a1 1 0 0 1 1-1h22a1 1 0 0 1 1 1v.999z"/>
        <path d="M9 28.006h2a1 1 0 0 0 1-1v-13a1 1 0 0 0-1-1H9a1 1 0 0 0-1 1v13a1 1 0 0 0 1 1zm0-14.001h2v13H9v-13z"/>
        <path d="M15 28.006h2a1 1 0 0 0 1-1v-13a1 1 0 0 0-1-1h-2a1 1 0 0 0-1 1v13a1 1 0 0 0 1 1zm0-14.001h2v13h-2v-13z"/>
        <path d="M21 28.006h2a1 1 0 0 0 1-1v-13a1 1 0 0 0-1-1h-2a1 1 0 0 0-1 1v13a1 1 0 0 0 1 1zm0-14.001h2v13h-2v-13z"/>
    </g>
</symbol><symbol id="icon-ukraine" viewBox="0 0 100 68">
    <path fill-rule="evenodd" d="M99.47 31.93c.27-.25.74-.55.45-1.08-.31-.4-.3.2-.81.09.65-.83-.43-1.41-.36-2.33-.39 0-.81.03-.99-.18-.05-.71.09-1.23.45-1.52.82.37 1.89-.19 1.44-1.08-.58.02-2.06.41-2.25-.63.54.03.63-.39 1.17-.35-.04-.9 1.08-1.34 1.17-2.06.11-.87-.59-.93-.81-1.79-.13-.3.37-.62.36-1.08-.88-.41-1.35.31-1.89.54-.14-.3-.67-.23-.99-.36-.18-.24-.17-.66-.36-.9-.77-.11-1-.36-1.62.09-.4-.22-.38-.87-.8-1.07-.67-.1-.49.65-1.08.63-.46-.47-1.47-.4-1.71-1.08-.63-.06-.99.15-1.62.09-.13-.2-.06-.6-.27-.72-.48-.06-.77.08-1.08.18-.13.46.33.98-.09 1.17-.61.17-.77-.6-1.17-.9-.91-.02-1.24-.61-1.62-1.16.01-.3.15-.45.09-.81-.19-.14-.59-.06-.81-.18a3.96 3.96 0 0 0-.27-.8h-.99c-.65 1.23-3.01.75-3.5 2.15-.38-.48-1.11-.95-1.71-.45-.26-.38-.52-.74-.81-1.08-1.42-.21-2.08.32-2.7.9-.16-.59-.47-1.03-1.08-1.17-.01-.44-.18-.72-.27-1.07.79-.87-.43-1.93-.63-2.69.03-.33.36-.36.27-.81-.5-.23-.58-.22-1.17-.08-.19-.29-.11-.85-.27-1.17-1.11-.22-1.38.42-2.34.36-.17-.68-1.74-.58-2.06-.54 0-.36.18-.54.18-.9-.08-.19-.58.04-.63-.17.61-.83-.32-1.58-.63-2.06.44-.25 1.09-.29 1.62-.45v-.9c-.81-.81-2.14-1.1-1.89-2.96-.8-.71-1.81-2.35-3.06-1.07-.08-.66-1.3-.2-1.8-.45-.46.38-.93.75-1.44 1.08-.97-.04-1.58-.68-2.97-.54-.06 1.41-.36 2.63-1.89 2.33-.16-.13-.1-.49-.45-.45-1.05.09-1.8-.31-2.6-.09-.29.08-.47.5-.72.54.03-.01-.39-.25-.63-.27-.43-.03-.59.18-.9.09-.14.13-.08.46-.09.72-1.48 1.05-2.82 3.53-1.53 5.55-.14.19-.37.29-.45.54.05-.38-.49-.17-.63-.36.07-1.57-1.97-1.88-3.14-1.16-.23-.11-.11-.55-.55-.45-.84.06-.93.86-1.88.8-.45-.7-.28-1.91-.99-2.06-.87-.18-.55.86-1.62.63-.26.35-.43.77-.72 1.08-.03-.39-.1-.73-.18-1.08-.46-.07-1.21-.38-1.44.09-.2-.42-.43-.82-.9-.98-.25.84-1.35.87-1.8.18-.66.15-.17 1-.72 1.16.09-.31.28-.56.09-.89-.8-.37-1.28-.48-2.06-.09.01-.73-.71-.74-.64-1.53-.6-.19-.95.03-1.52.09-.69-.24-1.07-.79-2.16-.62-.26-.07-.17-.49-.54-.45-.84.12-1.15-.29-1.53-.63-.8-.21-1.41.05-2.25 0-.71-.04-1.43-.61-2.16-.63-.28 0-.73.3-1.26.36-1.63.18-3.39-.54-3.86.54-.08.33.16.48 0 .63-.57.27-.87.81-1.53.98-.6-.58-2.16-.89-2.34.09-.09.53.5.89.54 1.52-.17.26-.38.46-.45.81 1.11.81 1.28 3.02 1.98 3.94-.38-.08-.51.09-.63.27.04.95.84 1.14.63 2.33-.28.26-.53.54-.72.9-.53-.2-1.03 0-1.53.09-.67 1.26-2.01 1.74-2.97 2.68-1.21 1.2-2.13 2.62-3.41 3.77.07 1.27.62 2.14 0 3.22.16.35.76.73.63 1.08-.49-.25-.88-.39-1.62-.54-.14.13-.08.46-.09.71-.96.53-1.31 1.68-1.62 2.87-.35.01-.56.16-.8.27-.25.44-.31 1.07-.27 1.79.55.07.8.45.89.99v.08c.15.13.14.4.27.54h.73c.09.41.32.69.35 1.17.34.31 1.35-.03 1.35.62.32.3-.41.42-.09.72.78.27 1.61-.14 1.98-.9.53.43.96.96 1.62 1.26.69-.38 1.69.22 2.16.63.24-.09.47-.19.81-.18.85.9 1.75.17 3.06.27.31.91 1.23 1.21 1.61 2.06.55.13.71.12 1.35.09.54-.56.6-1.19 1.26-1.44.74-.27 1.67.09 2.61 0 .77-.06 1.57-.5 2.34-.26.37-.53.77-1.03.98-1.71 1.1.02 1.15-.34 2.43-.35.29-.26.34-.75.45-1.17.32.1.39.45.81.45.36.06.22-.38.54-.36.19.19.5.28.9.27.64-.81 1.66-.66 2.97-.54.37.53.72 1.08 1.43 1.26-.01.22-.01.43.1.53.58-.17.54.3.89.36.26-.04.29-.32.63-.27.07.39-.45.21-.36.63.18.18.34.33.63.18-.03.39.15.56.45.63.3-.16.22-.68.63-.72.46.02.81.15 1.17.27.13.93.9 2.1 1.89 1.34.37.38.03.79.09 1.17.03.18.28.31.27.53-.04 1.02-1.05 1.96-.36 2.69 1.19-.11.85 1.31 1.8 1.44.26-.07.21-.73.54-.45.05.52-.54.8-.18 1.34-.32.15-.51.21-.36.63.02.28.52.07.63.27-.25.17-.17.66-.18 1.07.69.39 1.51.64 2.07 1.17-.04.96.18 1.69-.27 2.15.2.51.81.62 1.08 1.07-.43.02-.99-.09-1.17.18-.07-.53-.36-.84-.81-.98-.18.3-.52.44-.63.8-.42-.18-.4-.8-.81-.98-.45.33-.75.2-1.17.27.01-.31-.1-.49-.27-.63-.68-.12-1.4.45-1.89.81.04 1.11-.01 1.76.54 2.33-.24.29-.61.73-.36 1.25-.35.21-.91.22-1.25.45.09 1.38-1.06 1.52-1.62 2.24-.03.65.49 1 0 1.43-.69-.19-1.75-.35-1.8.54.62.39.5 1.19 1.08 1.61.66.49 1.64.55 2.6.81.17-.19.06-.66.09-.99.3.09.29.5.72.45.85-.89 3.29-2.02 4.14-.36.08.6-.23 1.02.18 1.26.79-.41 1.3-2.5.09-2.87.22-.42-.52-1.08-.09-1.7.04.58.43.82.9.98.01-.38.48-.29.54-.63-.03-.23-.22-.31-.27-.53.21-.01.26.15.54.09.14-.31.09-.81.45-.9 1.22.68 2.05-1.18 2.79-2.06-.01-.33-.54-.6-.36-.81.19.17.34.38.63.45.75-.56.96-1.67 1.61-2.33.02-.54.13-.76 0-1.25 1.1-.02 1.95-1.08 2.97-.36.42-.03.56-.34.9-.45.15.19.44.23.63.36.16-.14.19-.41.45-.45.29.16.63.27.99.36.25-.2.58-.32.72-.63.52 1.11 1.83.54 2.52 1.26-.16.5-.65 0-1.08-.09-1.01-.21-2.21-.05-2.79-.45-.45.24-.94 0-1.17.09-.09.44.54.88.9 1.16.36.07.22-.37.54-.35.44.31 1.08.36 1.44.54-.27.76-1.64-.1-1.53 1.07.22.31.82.17 1.08 0 1.15.64 1.94 1.65 3.51 1.88 1.05-.89 3.17-.22 3.95-.98.75.18.89.96 1.89.89.14-.16.1-.5.27-.62-.05.62.17.96.27 1.43.23.11.44-.2.45 0-.77.55-1.89.74-2.52 1.43-.18-.05-.29-.26-.45-.09-.23.72-1.19.62-1.8 1.17-.15.13-.25.46-.45.62-.66.56-2.04.75-1.79 2.06.28.26.58.49 1.16.45 1.77-1.6 2.64 1.84 4.32.72.98.49 1.51 1.22 1.17 2.33-.1.33-.57.45-.63.8-.09.5.38 1 .18 1.53-.42.2-.9.35-1.08.8.37.5.77.97 1.71.9.23 1.24 1.77.6 2.52.98.43-.39 1.02-.31 1.44-.62.48-.37.61-1.29 1.44-1.26.16-1.89 1.88-2.25 3.05-3.13.79.03 1.2-.31 1.62-.63v-.18c.04-.2.44-.04.63-.09-.01-1.92 2.11-1.68 2.79-.54 1 .03 1.36-.74 2.34-.27.29-.48 1.19-.36 1.44-.89-.58-.49-.33-1.58.09-2.06.63.08 1 .09 1.08-.54-.62-.86-2.57-.73-3.87-.62-.2.28-.25.71-.54.89-.55-.03-.51-.63-.9-.81-.56.9-1.38 1.56-2.52 1.88-.68-.52-1.61-.34-2.07-.98.8-1.34-.7-2.45-1.89-2.69.11-.61.91-.53.99-1.16-.35-.72-.86-2.05-.54-2.87 1.08.37 1.31-.85 1.89-1.25.17.22.44.33.81.35.39-.59.78-1.19 1.53-1.43.44-.87 1.59-1.93 2.79-1.79.43.05.46.5.9.36.39-1.02 1.94-1.85 3.06-1.08.32-1.07 1.28-1.52 2.15-2.06.27.06.32.35.72.27.36-.54.65-1.14.99-1.7.9.28 1.89-.37 3.06-.36-.04.31.03.51.36.45.33-.3.35-.9.81-1.07-.34.06-.44-.11-.45-.36.05-.49.54-.55.54-1.08-.08-.19-.57.03-.63-.18.46-.56.03-1.46.27-2.24.89-.27 1.8-.54 2.34-1.16.23-.37.06-1.14.45-1.35 1.84-.09 3.01-.08 5.03-.27.44-1.18.06-2.05.45-3.31z"/>
</symbol><symbol id="icon-vk" viewBox="0 0 30 30">
    <path clip-rule="evenodd" d="M16 24c1 0 1-1.441 1-2 0-1 1-2 2-2s2.715 1.715 4 3c1 1 1 1 2 1h3s2-.076 2-2c0-.625-.685-1.685-3-4-2-2-3.026-.967 0-5 1.843-2.456 3.184-4.681 2.954-5.323C29.734 7.064 24.608 6.088 24 7c-2 3-2.367 3.735-3 5-1 2-1.099 3-2 3-.909 0-1-1.941-1-3 0-3.306.479-5.644-1-6h-3c-1.61 0-3 1-3 1s-1.241.968-1 1c.298.04 2-.414 2 1v2s.009 4-1 4c-1 0-3-4-5-7-.785-1.177-1-1-2-1-1.072 0-1.999.042-3 .042-1 0-1.128.637-1 .958 2 5 3.437 8.14 7.237 12.096C10.722 23.725 13.05 23.918 15 24c.5.021 0 0 1 0z" fill-rule="evenodd"/>
</symbol></svg>