<?xml version="1.0" encoding="utf-8"?>
<!-- Generator: Avocode 2.6.0 - http://avocode.com -->
<svg height="15" width="15" xmlns:xlink="http://www.w3.org/1999/xlink" xmlns="http://www.w3.org/2000/svg" viewBox="0 0 15 15">
    <path fill="#523796" fill-rule="evenodd" d="M 7.5 0 C 3.36 0 0 3.36 0 7.5 C 0 11.64 3.36 15 7.5 15 C 11.64 15 15 11.64 15 7.5 C 15 3.36 11.64 0 7.5 0 Z M 10.29 11.43 C 10.29 11.43 7.5 9.96 7.5 9.96 C 7.5 9.96 4.71 11.43 4.71 11.43 C 4.71 11.43 5.25 8.32 5.25 8.32 C 5.25 8.32 3 6.14 3 6.14 C 3 6.14 6.11 5.68 6.11 5.68 C 6.11 5.68 7.5 2.86 7.5 2.86 C 7.5 2.86 8.89 5.68 8.89 5.68 C 8.89 5.68 12 6.14 12 6.14 C 12 6.14 9.75 8.32 9.75 8.32 C 9.75 8.32 10.29 11.43 10.29 11.43 Z" />
</svg>