<svg xmlns="http://www.w3.org/2000/svg" xmlns:xlink="http://www.w3.org/1999/xlink" preserveAspectRatio="xMidYMid" width="19.312" height="17.59" viewBox="0 0 19.312 17.59">
  <defs>
    <style>
      .cls-1 {
        fill: #717171;
        fill-rule: evenodd;
      }
    </style>
  </defs>
  <path d="M0.004,-0.011 L0.004,11.023 L4.141,11.023 L4.141,-0.011 L0.004,-0.011 ZM5.520,-0.011 L5.520,11.023 C6.347,11.023 6.907,11.290 7.459,11.842 C8.011,12.393 9.758,15.931 10.172,16.621 C10.586,17.310 11.293,17.706 11.983,17.570 C12.672,17.294 13.068,16.586 12.932,15.759 C12.656,15.069 12.417,13.091 12.417,12.402 C12.417,11.712 12.969,11.023 13.796,11.023 L17.934,11.023 C18.761,11.023 19.313,10.471 19.313,9.643 L16.425,0.809 C16.287,0.395 15.727,-0.011 15.175,-0.011 L5.521,-0.011 L5.520,-0.011 Z" class="cls-1"/>
</svg>
