<svg xmlns="http://www.w3.org/2000/svg" xmlns:xlink="http://www.w3.org/1999/xlink" preserveAspectRatio="xMidYMid" width="18.938" height="10.72" viewBox="0 0 18.938 10.72">
  <defs>
    <style>
      .cls-1 {
        fill: silver;
        fill-rule: evenodd;
      }
    </style>
  </defs>
  <path d="M18.949,5.398 C18.948,5.407 18.948,5.414 18.947,5.422 C18.947,5.426 18.947,5.430 18.946,5.434 C18.946,5.439 18.945,5.445 18.944,5.450 C18.943,5.457 18.942,5.463 18.941,5.470 C18.941,5.471 18.941,5.472 18.941,5.473 C18.918,5.619 18.849,5.756 18.743,5.862 C18.544,6.098 18.327,6.319 18.108,6.536 C16.928,7.708 15.573,8.753 14.089,9.511 C13.141,9.995 12.129,10.386 11.078,10.574 C9.923,10.780 8.766,10.770 7.617,10.526 C5.629,10.103 3.828,9.053 2.253,7.798 C1.522,7.216 0.803,6.579 0.198,5.862 C-0.066,5.549 -0.066,5.177 0.198,4.864 C0.397,4.629 0.614,4.407 0.832,4.190 C2.013,3.019 3.368,1.974 4.852,1.216 C5.799,0.731 6.812,0.341 7.863,0.153 C9.018,-0.054 10.174,-0.043 11.323,0.201 C13.312,0.623 15.113,1.673 16.688,2.928 C17.419,3.510 18.138,4.148 18.742,4.864 C18.848,4.970 18.917,5.107 18.941,5.254 C18.941,5.255 18.941,5.255 18.941,5.256 C18.942,5.263 18.943,5.269 18.944,5.276 C18.944,5.282 18.945,5.287 18.946,5.293 C18.946,5.297 18.946,5.301 18.947,5.305 C18.947,5.313 18.948,5.320 18.948,5.328 C18.949,5.340 18.950,5.351 18.950,5.363 C18.950,5.375 18.949,5.387 18.949,5.398 ZM9.475,1.717 C7.461,1.717 5.829,3.349 5.829,5.363 C5.829,7.377 7.461,9.009 9.475,9.009 C11.488,9.009 13.121,7.377 13.121,5.363 C13.121,3.349 11.488,1.717 9.475,1.717 ZM9.475,6.570 C8.808,6.570 8.268,6.030 8.268,5.363 C8.268,4.697 8.808,4.156 9.475,4.156 C10.141,4.156 10.682,4.697 10.682,5.363 C10.682,6.030 10.141,6.570 9.475,6.570 Z" class="cls-1"/>
</svg>
