<svg xmlns="http://www.w3.org/2000/svg" xmlns:xlink="http://www.w3.org/1999/xlink" preserveAspectRatio="xMidYMid" width="19.312" height="17.59" viewBox="0 0 19.312 17.59">
  <defs>
    <style>
      .cls-1 {
        fill: #717171;
        fill-rule: evenodd;
      }
    </style>
  </defs>
  <path d="M0.004,17.600 L0.004,6.567 L4.141,6.567 L4.141,17.600 L0.004,17.600 ZM5.520,17.600 L5.520,6.567 C6.348,6.567 6.907,6.300 7.459,5.748 C8.011,5.196 9.758,1.659 10.172,0.969 C10.586,0.279 11.293,-0.117 11.983,0.020 C12.672,0.296 13.068,1.004 12.932,1.831 C12.656,2.520 12.417,4.498 12.417,5.188 C12.417,5.878 12.969,6.567 13.796,6.567 L17.934,6.567 C18.761,6.567 19.313,7.119 19.313,7.946 L16.425,16.781 C16.287,17.195 15.727,17.600 15.175,17.600 L5.521,17.600 L5.520,17.600 Z" class="cls-1"/>
</svg>
