<svg xmlns="http://www.w3.org/2000/svg" xmlns:xlink="http://www.w3.org/1999/xlink" preserveAspectRatio="xMidYMid" width="28.5" height="25.62" viewBox="0 0 28.5 25.62">
  <defs>
    <style>
      .cls-1 {
        fill: #9b1d4f;
        fill-rule: evenodd;
      }
    </style>
  </defs>
  <path d="M28.500,12.802 C28.500,12.338 28.216,12.049 27.816,11.838 C27.792,11.823 0.756,0.030 0.756,0.030 C0.686,-0.001 0.613,-0.016 0.539,-0.016 C0.435,-0.016 0.333,0.013 0.244,0.071 C0.091,0.169 -0.001,0.339 -0.001,0.518 L-0.001,11.214 C-0.001,11.502 0.228,11.736 0.517,11.747 L27.274,12.810 L0.517,13.870 C0.228,13.883 -0.001,14.117 -0.001,14.406 L-0.001,25.101 C-0.001,25.280 0.091,25.450 0.244,25.549 C0.333,25.606 0.435,25.635 0.539,25.635 C0.612,25.635 0.686,25.620 0.756,25.589 L27.521,13.918 C28.040,13.721 28.500,13.364 28.500,12.802 Z" class="cls-1"/>
</svg>
