<svg xmlns="http://www.w3.org/2000/svg" xmlns:xlink="http://www.w3.org/1999/xlink" preserveAspectRatio="xMidYMid" width="13.406" height="16.4" viewBox="0 0 13.406 16.4">
  <defs>
    <style>
      .cls-1 {
        fill: silver;
        fill-rule: evenodd;
      }
    </style>
  </defs>
  <path d="M10.596,10.797 C10.006,10.797 9.458,10.980 9.006,11.291 L5.527,8.883 C5.580,8.668 5.611,8.445 5.611,8.213 C5.611,7.982 5.580,7.758 5.527,7.543 L9.006,5.136 C9.458,5.446 10.005,5.629 10.595,5.629 C12.147,5.629 13.406,4.371 13.406,2.819 C13.406,1.267 12.147,0.008 10.595,0.008 C9.043,0.008 7.785,1.267 7.785,2.819 C7.785,3.050 7.816,3.274 7.869,3.489 L4.390,5.897 C3.938,5.586 3.391,5.403 2.801,5.403 C1.249,5.403 -0.009,6.661 -0.009,8.213 C-0.009,9.765 1.249,11.023 2.801,11.023 C3.391,11.023 3.938,10.840 4.390,10.529 L7.869,12.937 C7.817,13.152 7.786,13.376 7.786,13.607 C7.786,15.159 9.044,16.417 10.596,16.417 C12.148,16.417 13.406,15.159 13.406,13.607 C13.406,12.055 12.147,10.797 10.596,10.797 Z" class="cls-1"/>
</svg>
