<svg xmlns="http://www.w3.org/2000/svg" xmlns:xlink="http://www.w3.org/1999/xlink" preserveAspectRatio="xMidYMid" width="25.969" height="25.938" viewBox="0 0 25.969 25.938">
  <defs>
    <style>
      .cls-1 {
        fill: #000;
        opacity: 0.3;
        fill-rule: evenodd;
      }
    </style>
  </defs>
  <path d="M12.980,-0.014 C16.558,-0.014 19.818,1.431 22.163,3.777 L22.212,3.841 C24.530,6.186 25.968,9.410 25.968,12.960 C25.968,16.539 24.508,19.784 22.163,22.136 L22.099,22.187 C19.761,24.503 16.537,25.935 12.980,25.935 C9.401,25.935 6.155,24.490 3.803,22.130 L3.803,22.136 C1.465,19.784 0.005,16.539 0.005,12.960 C0.005,9.382 1.451,6.137 3.803,3.784 L3.803,3.777 L3.810,3.777 C6.163,1.431 9.401,-0.014 12.980,-0.014 L12.980,-0.014 ZM18.656,11.961 L18.656,11.961 L13.979,11.961 L13.979,4.011 C13.979,3.465 13.539,3.019 12.980,3.019 C12.434,3.019 11.981,3.465 11.981,4.011 L11.981,12.932 L11.981,12.960 C11.981,13.506 12.434,13.959 12.980,13.959 L18.656,13.959 C19.209,13.959 19.647,13.506 19.647,12.960 C19.647,12.415 19.209,11.961 18.656,11.961 L18.656,11.961 ZM20.753,5.187 L20.753,5.187 C18.762,3.203 16.012,1.969 12.980,1.969 C9.954,1.969 7.197,3.203 5.220,5.187 L5.206,5.187 C3.236,7.178 2.004,9.920 2.004,12.960 C2.004,15.986 3.236,18.735 5.220,20.734 L5.220,20.734 C7.197,22.704 9.954,23.950 12.980,23.950 C15.991,23.950 18.719,22.718 20.710,20.769 L20.753,20.734 C22.737,18.735 23.970,15.986 23.970,12.960 C23.970,9.942 22.752,7.214 20.795,5.243 L20.753,5.187 L20.753,5.187 Z" class="cls-1"/>
</svg>
