<?xml version="1.0" encoding="utf-8"?>
<!-- Generator: Avocode 2.6.0 - http://avocode.com -->
<svg height="23" width="26" xmlns:xlink="http://www.w3.org/1999/xlink" xmlns="http://www.w3.org/2000/svg" viewBox="0 0 26 23">
    <path fill="#734fa1" fill-rule="evenodd" d="M 25.23 10.2 C 25.23 10.2 24.34 10.21 24.34 10.21 C 24.18 10.21 24.05 10.08 24.05 9.92 C 23.92 6.27 21.7 2.98 18.36 1.49 C 18.21 1.43 18.14 1.26 18.2 1.11 C 18.2 1.11 18.54 0.29 18.54 0.29 C 18.6 0.14 18.78 0.06 18.93 0.13 C 22.81 1.84 25.39 5.66 25.52 9.9 C 25.53 10.06 25.39 10.2 25.23 10.2 Z M 22.57 9.91 C 22.58 10.08 22.44 10.22 22.27 10.22 C 22.27 10.22 21.39 10.22 21.39 10.22 C 21.23 10.22 21.1 10.1 21.09 9.94 C 20.97 7.47 19.48 5.26 17.24 4.23 C 17.09 4.16 17.02 3.99 17.08 3.84 C 17.08 3.84 17.42 3.02 17.42 3.02 C 17.48 2.87 17.66 2.79 17.81 2.86 C 20.59 4.12 22.44 6.87 22.57 9.91 Z M 20 11.62 C 20 11.62 20 14.63 20 14.63 C 20 14.63 21.58 16.25 21.58 16.25 C 21.72 16.39 21.8 16.58 21.8 16.78 C 21.8 16.78 21.8 19.07 21.8 19.07 C 21.8 19.48 21.46 19.81 21.05 19.81 C 21.05 19.81 16.09 19.81 16.09 19.81 C 16.09 21.45 14.64 22.9 13 22.9 C 11.36 22.9 9.91 21.45 9.91 19.81 C 9.91 19.81 4.95 19.81 4.95 19.81 C 4.54 19.81 4.2 19.48 4.2 19.07 C 4.2 19.07 4.2 16.78 4.2 16.78 C 4.2 16.58 4.28 16.39 4.42 16.25 C 4.42 16.25 6 14.63 6 14.63 C 6 14.63 6 11.62 6 11.62 C 6 8.63 7.77 6.06 10.42 5.02 C 10.69 3.82 11.74 2.92 13 2.92 C 14.26 2.92 15.31 3.82 15.58 5.02 C 18.23 6.06 20 8.63 20 11.62 Z M 13 21.41 C 13.88 21.41 14.6 20.58 14.6 19.81 C 14.6 19.81 11.4 19.81 11.4 19.81 C 11.4 20.58 12.12 21.41 13 21.41 Z M 14.15 6.14 C 14.15 5.86 14.15 5.67 14.15 5.61 C 14.15 4.97 13.64 4.41 13 4.41 C 12.36 4.41 11.85 4.97 11.85 5.61 C 11.85 5.67 11.85 5.86 11.85 6.14 C 9.28 6.68 7.49 8.91 7.49 11.62 C 7.49 11.94 7.49 13.47 7.49 15.23 C 7.49 15.23 5.69 17.07 5.69 17.07 C 5.69 17.07 5.69 18.32 5.69 18.32 C 5.69 18.32 20.31 18.32 20.31 18.32 C 20.31 18.32 20.31 17.07 20.31 17.07 C 20.31 17.07 18.51 15.23 18.51 15.23 C 18.51 13.47 18.51 12.02 18.51 11.62 C 18.51 8.91 16.72 6.68 14.15 6.14 Z M 4.91 9.94 C 4.9 10.1 4.77 10.22 4.61 10.22 C 4.61 10.22 3.73 10.22 3.73 10.22 C 3.56 10.22 3.42 10.08 3.43 9.91 C 3.56 6.87 5.41 4.12 8.19 2.86 C 8.34 2.79 8.52 2.87 8.58 3.02 C 8.58 3.02 8.92 3.84 8.92 3.84 C 8.98 3.99 8.91 4.16 8.76 4.23 C 6.52 5.26 5.03 7.47 4.91 9.94 Z M 1.95 9.92 C 1.95 10.08 1.82 10.21 1.66 10.21 C 1.66 10.21 0.77 10.2 0.77 10.2 C 0.61 10.2 0.47 10.06 0.47 9.9 C 0.61 5.66 3.19 1.84 7.07 0.13 C 7.22 0.06 7.4 0.14 7.46 0.29 C 7.46 0.29 7.79 1.11 7.79 1.11 C 7.86 1.26 7.79 1.43 7.64 1.49 C 4.3 2.98 2.08 6.27 1.95 9.92 Z" />
</svg>