<?xml version="1.0" encoding="utf-8"?>
<!-- Generator: Avocode 2.6.0 - http://avocode.com -->
<svg height="29" width="30" xmlns:xlink="http://www.w3.org/1999/xlink" xmlns="http://www.w3.org/2000/svg" viewBox="0 0 30 29">
    <path fill="#1c1c1c" opacity="0.28" fill-rule="evenodd" d="M 15 29 C 6.99 29 0.5 22.51 0.5 14.5 C 0.5 6.49 6.99 0 15 0 C 23.01 0 29.5 6.49 29.5 14.5 C 29.5 22.51 23.01 29 15 29 Z M 15.52 2.6 C 15.52 2.6 15.52 5.7 15.52 5.7 C 15.52 5.7 13.79 5.7 13.79 5.7 C 13.79 5.7 13.79 2.6 13.79 2.6 C 8.61 3.02 3.52 8.11 3.1 13.98 C 3.1 13.98 5.16 13.98 5.16 13.98 C 5.16 13.98 5.16 15.71 5.16 15.71 C 5.16 15.71 3.1 15.71 3.1 15.71 C 3.52 20.89 8.61 25.98 13.79 26.4 C 13.79 26.4 13.79 24.34 13.79 24.34 C 13.79 24.34 15.52 24.34 15.52 24.34 C 15.52 24.34 15.52 26.4 15.52 26.4 C 21.39 25.98 26.48 20.89 26.9 15.71 C 26.9 15.71 23.8 15.71 23.8 15.71 C 23.8 15.71 23.8 13.98 23.8 13.98 C 23.8 13.98 26.9 13.98 26.9 13.98 C 26.48 8.11 21.39 3.02 15.52 2.6 Z M 16.56 14.57 C 16.56 15.47 15.83 16.21 14.93 16.21 C 14.09 16.21 13.41 15.57 13.31 14.76 C 13.31 14.76 9.28 9.42 9.28 9.42 C 9.28 9.42 14.39 13.03 14.39 13.03 C 14.56 12.98 14.74 12.94 14.93 12.94 C 14.96 12.94 14.99 12.94 15.02 12.95 C 15.02 12.95 22.78 6.61 22.78 6.61 C 22.78 6.61 16.53 14.23 16.53 14.23 C 16.55 14.34 16.56 14.45 16.56 14.57 Z" />
</svg>