<?xml version="1.0" encoding="UTF-8" standalone="no"?>
<svg width="32px" height="27px" viewBox="0 0 32 27" version="1.1" xmlns="http://www.w3.org/2000/svg" xmlns:xlink="http://www.w3.org/1999/xlink">
    <!-- Generator: Sketch 3.7.2 (28276) - http://www.bohemiancoding.com/sketch -->
    <title>Download</title>
    <desc>Created with Sketch.</desc>
    <defs></defs>
    <g id="Page-1" stroke="none" stroke-width="1" fill="none" fill-rule="evenodd">
        <g id="download" fill="#121313">
            <g id="Download">
                <path d="M31,25 L1,25 C0,25 0,26 0,26 C0,26.552 0.448,27 1,27 L16.6486979,27 L31,27 C31.552,27 32,26.552 32,26 C32,26 32,25 31,25 Z" id="Shape"></path>
                <path d="M15.27,23.707 C15.659,24.092 16.31,24.096 16.699,23.707 L23.698,16.807 C24.093,16.416 24.092,15.783 23.698,15.393 C23.304,15.002 22.664,15.002 22.27,15.393 L16.995,20.593 L16.995,1 C16.995,0.448 16.543,0 15.985,0 C15.427,0 14.975,0.448 14.975,1 L14.975,20.593 L9.7,15.393 C9.305,15.002 8.666,15.002 8.272,15.393 C7.877,15.784 7.877,16.417 8.272,16.807 L15.27,23.707 L15.27,23.707 Z" id="Shape"></path>
            </g>
        </g>
    </g>
</svg>