<?xml version="1.0" encoding="utf-8"?>
<!-- Generator: Avocode 2.6.0 - http://avocode.com -->
<svg height="25" width="14" xmlns:xlink="http://www.w3.org/1999/xlink" xmlns="http://www.w3.org/2000/svg" viewBox="0 0 14 25">
    <path fill="#ffffff" fill-rule="evenodd" d="M 13.41 4.63 C 13.41 4.63 11.49 4.63 11.49 4.63 C 9.58 4.63 8.62 5.56 8.62 7.41 C 8.62 7.41 8.62 9.26 8.62 9.26 C 8.62 9.26 13.41 9.26 13.41 9.26 C 13.41 9.26 12.45 13.88 12.45 13.88 C 12.45 13.88 8.62 13.88 8.62 13.88 C 8.62 13.88 8.62 24.99 8.62 24.99 C 8.62 24.99 3.82 24.99 3.82 24.99 C 3.82 24.99 3.82 13.88 3.82 13.88 C 3.82 13.88 -0.01 13.88 -0.01 13.88 C -0.01 13.88 -0.01 9.26 -0.01 9.26 C -0.01 9.26 3.82 9.26 3.82 9.26 C 3.82 9.26 3.82 6.48 3.82 6.48 C 3.82 2.67 6.05 0.01 9.57 0.01 C 11.26 0.01 12.45 0.01 13.41 0.01 C 13.41 0.01 13.41 4.63 13.41 4.63 Z" />
</svg>