<?xml version="1.0" encoding="utf-8"?>
<!-- Generator: Avocode 2.6.0 - http://avocode.com -->
<svg height="60" width="87" xmlns:xlink="http://www.w3.org/1999/xlink" xmlns="http://www.w3.org/2000/svg" viewBox="0 0 87 60">
    <path fill="#ffffff" fill-rule="evenodd" d="M 83.18 50.53 C 83.18 50.53 49.65 50.53 49.65 50.53 C 49.65 50.53 49.65 55.67 49.65 55.67 C 49.65 55.67 59.11 55.67 59.11 55.67 C 59.11 55.67 59.11 59.95 59.11 59.95 C 59.11 59.95 28.16 59.95 28.16 59.95 C 28.16 59.95 28.16 55.67 28.16 55.67 C 28.16 55.67 37.62 55.67 37.62 55.67 C 37.62 55.67 37.62 50.53 37.62 50.53 C 37.62 50.53 4.09 50.53 4.09 50.53 C 4.09 50.53 0.65 50.53 0.65 50.53 C 0.65 50.53 0.65 47.1 0.65 47.1 C 0.65 47.1 0.65 3.42 0.65 3.42 C 0.65 3.42 0.65 -0.01 0.65 -0.01 C 0.65 -0.01 4.09 -0.01 4.09 -0.01 C 4.09 -0.01 83.18 -0.01 83.18 -0.01 C 83.18 -0.01 86.62 -0.01 86.62 -0.01 C 86.62 -0.01 86.62 3.42 86.62 3.42 C 86.62 3.42 86.62 47.1 86.62 47.1 C 86.62 47.1 86.62 50.53 86.62 50.53 C 86.62 50.53 83.18 50.53 83.18 50.53 Z M 83.18 3.42 C 83.18 3.42 4.09 3.42 4.09 3.42 C 4.09 3.42 4.09 47.1 4.09 47.1 C 4.09 47.1 83.18 47.1 83.18 47.1 C 83.18 47.1 83.18 3.42 83.18 3.42 Z M 29.96 23.33 C 29.96 23.33 37.58 23.33 37.58 23.33 C 37.58 23.33 37.58 15.89 37.58 15.89 C 37.58 15.89 41.64 15.89 41.64 15.89 C 41.64 15.89 41.64 35.4 41.64 35.4 C 41.64 35.4 37.58 35.4 37.58 35.4 C 37.58 35.4 37.58 26.69 37.58 26.69 C 37.58 26.69 29.96 26.69 29.96 26.69 C 29.96 26.69 29.96 35.4 29.96 35.4 C 29.96 35.4 25.9 35.4 25.9 35.4 C 25.9 35.4 25.9 15.89 25.9 15.89 C 25.9 15.89 29.96 15.89 29.96 15.89 C 29.96 15.89 29.96 23.33 29.96 23.33 Z M 57.05 16.31 C 58.43 16.76 59.54 17.59 60.39 18.79 C 61.07 19.76 61.54 20.81 61.79 21.94 C 62.03 23.07 62.16 24.14 62.16 25.17 C 62.16 27.76 61.64 29.96 60.59 31.76 C 59.17 34.19 56.98 35.4 54.02 35.4 C 54.02 35.4 45.58 35.4 45.58 35.4 C 45.58 35.4 45.58 15.89 45.58 15.89 C 45.58 15.89 54.02 15.89 54.02 15.89 C 55.24 15.91 56.25 16.05 57.05 16.31 Z M 49.55 19.28 C 49.55 19.28 49.55 32.01 49.55 32.01 C 49.55 32.01 53.33 32.01 53.33 32.01 C 55.26 32.01 56.61 31.06 57.38 29.17 C 57.79 28.13 58 26.88 58 25.45 C 58 23.46 57.69 21.94 57.06 20.87 C 56.44 19.81 55.19 19.28 53.33 19.28 C 53.33 19.28 49.55 19.28 49.55 19.28 Z" />
</svg>