<?xml version="1.0" encoding="UTF-8" standalone="no"?>
<svg width="35px" height="35px" viewBox="0 0 35 35" version="1.1" xmlns="http://www.w3.org/2000/svg" xmlns:xlink="http://www.w3.org/1999/xlink">
    <!-- Generator: Sketch 3.7.2 (28276) - http://www.bohemiancoding.com/sketch -->
    <title>Slice 1</title>
    <desc>Created with Sketch.</desc>
    <defs></defs>
    <g id="Page-1" stroke="none" stroke-width="1" fill="none" fill-rule="evenodd">
        <g id="1461766354_instagram" fill="#000000">
            <g id="black">
                <g id="instagram">
                    <path d="M9.7673614,12.2307692 L0.6923077,12.2307692 L0.6923077,11.0769231 L0.692308,11.0769231 C0.6923085,22.2046259 0.6923077,29.1538462 0.6923077,29.1538462 C0.6923077,34.1538451 5.6923077,34.1538451 5.6923077,34.1538451 L29.1538451,34.1538451 C29.1538451,34.1538451 34.1538451,34.1538451 34.1538462,29.1538462 L34.1538454,12.2307692 L34.1538462,12.2307692 L34.1538462,11.0769231 L24.3467878,11.0769231 C22.7679692,8.9749961 20.2543003,7.6153846 17.4230769,7.6153846 C14.5918536,7.6153846 12.0781847,8.9749961 10.4993661,11.0769231 L0.692308,11.0769231 C0.6923079,9.3763439 0.6923078,7.5781757 0.6923077,5.6923077 C0.6923077,2.53622 2.6844856,1.3723102 4.1538462,0.9430807 L4.1538462,7.6153846 L5.3076923,7.6153846 L5.3076923,0.7168978 L5.3076923,0.7168978 C5.5477091,0.6923077 5.6923077,0.6923077 5.6923077,0.6923077 L29.1538462,0.6923077 C29.1538462,0.6923077 34.1538451,0.6923077 34.1538451,5.6923077 L34.1538454,12.2307692 L25.0787925,12.2307692 C25.716079,13.4363757 26.0769231,14.8106634 26.0769231,16.2692308 C26.0769231,21.0486183 22.2024644,24.9230769 17.4230769,24.9230769 C12.6436894,24.9230769 8.7692308,21.0486183 8.7692308,16.2692308 C8.7692308,14.8106634 9.1300748,13.4363757 9.7673614,12.2307692 L9.7673614,12.2307692 L9.7673614,12.2307692 Z M28.0785289,3 C26.9730725,3 26.0769231,3.9014423 26.0769231,5.0016058 L26.0769231,6.767625 C26.0769231,7.8730813 26.9783654,8.7692308 28.0785289,8.7692308 L29.8445481,8.7692308 C30.9500044,8.7692308 31.8461538,7.8677885 31.8461538,6.767625 L31.8461538,5.0016058 C31.8461538,3.8961494 30.9447115,3 29.8445481,3 L28.0785289,3 L28.0785289,3 Z M8.7692308,0.6923077 L8.7692308,7.6153846 L9.9230769,7.6153846 L9.9230769,0.6923077 L8.7692308,0.6923077 L8.7692308,0.6923077 Z M6.4615385,0.6923077 L6.4615385,7.6153846 L7.6153846,7.6153846 L7.6153846,0.6923077 L6.4615385,0.6923077 L6.4615385,0.6923077 Z M17.4230769,23.1923077 C21.2465869,23.1923077 24.3461538,20.0927408 24.3461538,16.2692308 C24.3461538,12.4457208 21.2465869,9.3461538 17.4230769,9.3461538 C13.5995669,9.3461538 10.5,12.4457208 10.5,16.2692308 C10.5,20.0927408 13.5995669,23.1923077 17.4230769,23.1923077 L17.4230769,23.1923077 Z M17.4230769,20.8846154 C19.9720836,20.8846154 22.0384615,18.8182374 22.0384615,16.2692308 C22.0384615,13.7202241 19.9720836,11.6538462 17.4230769,11.6538462 C14.8740703,11.6538462 12.8076923,13.7202241 12.8076923,16.2692308 C12.8076923,18.8182374 14.8740703,20.8846154 17.4230769,20.8846154 L17.4230769,20.8846154 Z" id="Shape"></path>
                </g>
            </g>
        </g>
    </g>
</svg>