<?xml version="1.0" encoding="utf-8"?>
<!-- Generator: Avocode 2.6.0 - http://avocode.com -->
<svg height="18" width="20" xmlns:xlink="http://www.w3.org/1999/xlink" xmlns="http://www.w3.org/2000/svg" viewBox="0 0 20 18">
    <path fill="#717171" fill-rule="evenodd" d="M 0 18.01 C 0 18.01 0 6.72 0 6.72 C 0 6.72 4.17 6.72 4.17 6.72 C 4.17 6.72 4.17 18.01 4.17 18.01 C 4.17 18.01 0 18.01 0 18.01 Z M 5.56 18.01 C 5.56 18.01 5.56 6.72 5.56 6.72 C 6.39 6.72 6.96 6.45 7.51 5.88 C 8.07 5.32 9.83 1.7 10.25 1 C 10.66 0.29 11.38 -0.12 12.07 0.02 C 12.76 0.31 13.16 1.03 13.02 1.88 C 12.75 2.58 12.51 4.61 12.51 5.31 C 12.51 6.02 13.06 6.72 13.9 6.72 C 13.9 6.72 18.06 6.72 18.06 6.72 C 18.9 6.72 19.45 7.29 19.45 8.13 C 19.45 8.13 16.54 17.17 16.54 17.17 C 16.4 17.6 15.84 18.01 15.29 18.01 C 15.29 18.01 5.56 18.01 5.56 18.01 C 5.56 18.01 5.56 18.01 5.56 18.01 Z" />
</svg>