<?xml version="1.0" encoding="utf-8"?>
<!-- Generator: Avocode 2.6.0 - http://avocode.com -->
<svg height="12" width="18" xmlns:xlink="http://www.w3.org/1999/xlink" xmlns="http://www.w3.org/2000/svg" viewBox="0 0 18 12">
    <path fill="#353535" fill-rule="evenodd" d="M 0 12 C 0 12 18 12 18 12 C 18 12 18 10 18 10 C 18 10 0 10 0 10 C 0 10 0 12 0 12 Z M 0 7 C 0 7 18 7 18 7 C 18 7 18 5 18 5 C 18 5 0 5 0 5 C 0 5 0 7 0 7 Z M 0 0 C 0 0 0 2 0 2 C 0 2 18 2 18 2 C 18 2 18 0 18 0 C 18 0 0 0 0 0 Z" />
</svg>