<?xml version="1.0" encoding="utf-8"?>
<!-- Generator: Avocode 2.6.0 - http://avocode.com -->
<svg height="59" width="59" xmlns:xlink="http://www.w3.org/1999/xlink" xmlns="http://www.w3.org/2000/svg" viewBox="0 0 59 59">
    <path fill="#ffffff" fill-rule="evenodd" d="M 29.4 58.05 C 13.41 58.05 0.39 45.07 0.39 29.13 C 0.39 13.18 13.41 0.2 29.4 0.2 C 45.4 0.2 58.42 13.18 58.42 29.13 C 58.42 45.07 45.4 58.05 29.4 58.05 Z M 29.4 2.41 C 14.63 2.41 2.61 14.4 2.61 29.13 C 2.61 43.86 14.63 55.84 29.4 55.84 C 44.18 55.84 56.2 43.86 56.2 29.13 C 56.2 14.4 44.18 2.41 29.4 2.41 Z M 43.54 18.23 C 43.54 18.23 45.35 17.85 45.35 17.85 C 45.35 17.85 45.35 39.26 45.35 39.26 C 45.35 39.26 43.54 38.88 43.54 38.88 C 43.54 38.88 43.54 18.23 43.54 18.23 Z M 27.47 21.62 C 27.47 21.62 42.02 18.55 42.02 18.55 C 42.02 18.55 42.02 38.55 42.02 38.55 C 42.02 38.55 36.75 37.44 36.75 37.44 C 36.75 37.44 27.47 21.62 27.47 21.62 Z M 39.09 46.02 C 39.09 46.02 38.47 46.38 38.47 46.38 C 37.77 46.79 36.86 46.55 36.45 45.85 C 36.45 45.85 17.91 14.25 17.91 14.25 C 17.5 13.55 17.74 12.64 18.44 12.23 C 18.44 12.23 19.06 11.87 19.06 11.87 C 19.76 11.46 20.67 11.7 21.08 12.4 C 21.08 12.4 39.62 44.01 39.62 44.01 C 40.03 44.71 39.79 45.61 39.09 46.02 Z M 29.66 35.94 C 29.66 35.94 14.76 32.8 14.76 32.8 C 14.76 32.8 14.76 24.31 14.76 24.31 C 14.76 24.31 21.94 22.79 21.94 22.79 C 21.94 22.79 29.66 35.94 29.66 35.94 Z M 11.34 25.03 C 11.34 25.03 13.24 24.63 13.24 24.63 C 13.24 24.63 13.24 32.47 13.24 32.47 C 13.24 32.47 11.34 32.07 11.34 32.07 C 11.34 32.07 11.34 25.03 11.34 25.03 Z M 16.64 33.99 C 16.64 33.99 18.21 34.32 18.21 34.32 C 18.21 34.32 18.12 34.86 18.12 34.86 C 17.89 36.18 18.67 37.44 19.85 37.69 C 19.85 37.69 25.99 38.97 25.99 38.97 C 27.17 39.21 28.31 38.34 28.53 37.03 C 28.53 37.03 28.62 36.51 28.62 36.51 C 28.62 36.51 30.19 36.85 30.19 36.85 C 30.19 36.85 30.1 37.36 30.1 37.36 C 29.72 39.64 27.74 41.14 25.7 40.71 C 25.7 40.71 19.56 39.43 19.56 39.43 C 17.51 39.01 16.16 36.81 16.54 34.54 C 16.54 34.54 16.64 33.99 16.64 33.99 Z" />
</svg>