<?xml version="1.0" encoding="utf-8"?>
<!-- Generator: Avocode 2.6.0 - http://avocode.com -->
<svg height="60" width="82" xmlns:xlink="http://www.w3.org/1999/xlink" xmlns="http://www.w3.org/2000/svg" viewBox="0 0 82 60">
    <path fill="#ffffff" fill-rule="evenodd" d="M 77.01 12.62 C 77.01 12.62 77.01 59.97 77.01 59.97 C 77.01 59.97 73.63 59.97 73.63 59.97 C 73.63 59.97 73.63 57.76 73.63 57.76 C 73.63 57.76 8.85 57.76 8.85 57.76 C 8.85 57.76 8.85 59.97 8.85 59.97 C 8.85 59.97 5.48 59.97 5.48 59.97 C 5.48 59.97 5.48 12.62 5.48 12.62 C 2.76 11.87 0.76 9.4 0.76 6.44 C 0.76 2.88 3.62 0 7.17 0 C 10.71 0 13.58 2.88 13.58 6.44 C 13.58 9.4 11.57 11.87 8.85 12.62 C 8.85 12.62 8.85 14.42 8.85 14.42 C 10.3 15.9 15.87 21.16 24.21 24.82 C 24.21 24.82 24.21 18.42 24.21 18.42 C 22.89 17.8 22.01 16.49 22.01 14.91 C 22.01 12.7 23.7 11.01 25.89 11.01 C 28.09 11.01 29.77 12.7 29.77 14.91 C 29.77 16.45 28.93 17.72 27.67 18.36 C 30.37 20.82 41.69 29.74 54.68 18.28 C 53.51 17.62 52.72 16.39 52.72 14.91 C 52.72 12.7 54.4 11.01 56.6 11.01 C 58.79 11.01 60.48 12.7 60.48 14.91 C 60.48 16.49 59.59 17.8 58.28 18.42 C 58.28 18.42 58.28 24.76 58.28 24.76 C 63.22 22.55 68.37 19.24 73.63 14.49 C 73.63 14.49 73.63 12.62 73.63 12.62 C 70.92 11.87 68.91 9.4 68.91 6.44 C 68.91 2.88 71.78 0 75.32 0 C 78.86 0 81.73 2.88 81.73 6.44 C 81.73 9.4 79.73 11.87 77.01 12.62 Z M 64.36 54.38 C 64.36 54.38 46.81 41.16 46.81 41.16 C 46.81 41.16 37.03 41.16 37.03 41.16 C 37.03 41.16 18.3 54.38 18.3 54.38 C 18.3 54.38 64.36 54.38 64.36 54.38 Z M 10.2 6.44 C 10.2 4.74 8.85 3.39 7.17 3.39 C 5.48 3.39 4.13 4.74 4.13 6.44 C 4.13 8.13 5.48 9.49 7.17 9.49 C 8.85 9.49 10.2 8.13 10.2 6.44 Z M 25.89 14.4 C 25.55 14.4 25.39 14.57 25.39 14.91 C 25.39 15.24 25.55 15.41 25.89 15.41 C 26.23 15.41 26.4 15.24 26.4 14.91 C 26.4 14.57 26.23 14.4 25.89 14.4 Z M 54.91 22.5 C 50.01 26.05 45.38 27.27 41.24 27.27 C 35.3 27.27 30.49 24.65 27.58 22.55 C 27.58 22.55 27.58 26.15 27.58 26.15 C 35.14 28.79 44.51 29.83 54.91 26.12 C 54.91 26.12 54.91 22.5 54.91 22.5 Z M 56.6 14.4 C 56.26 14.4 56.09 14.57 56.09 14.91 C 56.09 15.24 56.26 15.41 56.6 15.41 C 56.93 15.41 57.1 15.24 57.1 14.91 C 57.1 14.57 56.93 14.4 56.6 14.4 Z M 58.28 28.45 C 58.28 28.45 58.28 39.13 58.28 39.13 C 58.28 39.13 54.91 39.13 54.91 39.13 C 54.91 39.13 54.91 29.7 54.91 29.7 C 50.26 31.21 45.79 31.85 41.58 31.85 C 36.5 31.85 31.8 30.93 27.58 29.54 C 27.58 29.54 27.58 39.13 27.58 39.13 C 27.58 39.13 24.21 39.13 24.21 39.13 C 24.21 39.13 24.21 28.31 24.21 28.31 C 17.25 25.48 11.9 21.59 8.85 19.04 C 8.85 19.04 8.85 57.04 8.85 57.04 C 8.85 57.04 35.85 37.78 35.85 37.78 C 35.85 37.78 47.99 37.78 47.99 37.78 C 47.99 37.78 73.63 57.13 73.63 57.13 C 73.63 57.13 73.63 19.05 73.63 19.05 C 68.36 23.38 63.23 26.42 58.28 28.45 Z M 75.32 3.39 C 73.63 3.39 72.28 4.74 72.28 6.44 C 72.28 8.13 73.63 9.49 75.32 9.49 C 77.01 9.49 78.36 8.13 78.36 6.44 C 78.36 4.74 77.01 3.39 75.32 3.39 Z" />
</svg>