<?xml version="1.0" encoding="utf-8"?>
<!-- Generator: Avocode 2.6.0 - http://avocode.com -->
<svg height="55" width="56" xmlns:xlink="http://www.w3.org/1999/xlink" xmlns="http://www.w3.org/2000/svg" viewBox="0 0 56 55">
    <path fill="#ffffff" fill-rule="evenodd" d="M 47.98 35.33 C 43.64 35.33 40.13 31.81 40.13 27.48 C 40.13 23.14 43.64 19.63 47.98 19.63 C 52.32 19.63 55.83 23.14 55.83 27.48 C 55.83 31.81 52.32 35.33 47.98 35.33 Z M 47.98 21.59 C 44.73 21.59 42.09 24.23 42.09 27.48 C 42.09 30.72 44.73 33.36 47.98 33.36 C 51.23 33.36 53.87 30.72 53.87 27.48 C 53.87 24.23 51.23 21.59 47.98 21.59 Z M 47.98 15.7 C 43.64 15.7 40.13 12.18 40.13 7.85 C 40.13 3.51 43.64 0 47.98 0 C 52.32 0 55.83 3.51 55.83 7.85 C 55.83 12.18 52.32 15.7 47.98 15.7 Z M 47.98 1.96 C 44.73 1.96 42.09 4.6 42.09 7.85 C 42.09 11.09 44.73 13.74 47.98 13.74 C 51.23 13.74 53.87 11.09 53.87 7.85 C 53.87 4.6 51.23 1.96 47.98 1.96 Z M 28.34 54.96 C 24.01 54.96 20.49 51.44 20.49 47.11 C 20.49 42.77 24.01 39.25 28.34 39.25 C 32.68 39.25 36.2 42.77 36.2 47.11 C 36.2 51.44 32.68 54.96 28.34 54.96 Z M 28.34 41.22 C 25.1 41.22 22.45 43.86 22.45 47.11 C 22.45 50.35 25.1 52.99 28.34 52.99 C 31.59 52.99 34.23 50.35 34.23 47.11 C 34.23 43.86 31.59 41.22 28.34 41.22 Z M 28.34 35.33 C 24.01 35.33 20.49 31.81 20.49 27.48 C 20.49 23.14 24.01 19.63 28.34 19.63 C 32.68 19.63 36.2 23.14 36.2 27.48 C 36.2 31.81 32.68 35.33 28.34 35.33 Z M 28.34 21.59 C 25.1 21.59 22.45 24.23 22.45 27.48 C 22.45 30.72 25.1 33.36 28.34 33.36 C 31.59 33.36 34.23 30.72 34.23 27.48 C 34.23 24.23 31.59 21.59 28.34 21.59 Z M 28.34 15.7 C 24.01 15.7 20.49 12.18 20.49 7.85 C 20.49 3.51 24.01 0 28.34 0 C 32.68 0 36.2 3.51 36.2 7.85 C 36.2 12.18 32.68 15.7 28.34 15.7 Z M 28.34 1.96 C 25.1 1.96 22.45 4.6 22.45 7.85 C 22.45 11.09 25.1 13.74 28.34 13.74 C 31.59 13.74 34.23 11.09 34.23 7.85 C 34.23 4.6 31.59 1.96 28.34 1.96 Z M 8.71 54.96 C 4.37 54.96 0.85 51.44 0.85 47.11 C 0.85 42.77 4.37 39.25 8.71 39.25 C 13.05 39.25 16.56 42.77 16.56 47.11 C 16.56 51.44 13.04 54.96 8.71 54.96 Z M 8.71 41.22 C 5.46 41.22 2.82 43.86 2.82 47.11 C 2.82 50.35 5.46 52.99 8.71 52.99 C 11.96 52.99 14.6 50.35 14.6 47.11 C 14.6 43.86 11.95 41.22 8.71 41.22 Z M 8.71 35.33 C 4.37 35.33 0.85 31.81 0.85 27.48 C 0.85 23.14 4.37 19.63 8.71 19.63 C 13.05 19.63 16.56 23.14 16.56 27.48 C 16.56 31.81 13.04 35.33 8.71 35.33 Z M 8.71 21.59 C 5.46 21.59 2.82 24.23 2.82 27.48 C 2.82 30.72 5.46 33.36 8.71 33.36 C 11.96 33.36 14.6 30.72 14.6 27.48 C 14.6 24.23 11.95 21.59 8.71 21.59 Z M 8.71 15.7 C 4.37 15.7 0.85 12.18 0.85 7.85 C 0.85 3.51 4.37 0 8.71 0 C 13.05 0 16.56 3.51 16.56 7.85 C 16.56 12.18 13.04 15.7 8.71 15.7 Z M 8.71 1.96 C 5.46 1.96 2.82 4.6 2.82 7.85 C 2.82 11.09 5.46 13.74 8.71 13.74 C 11.96 13.74 14.6 11.09 14.6 7.85 C 14.6 4.6 11.95 1.96 8.71 1.96 Z M 47.98 39.25 C 52.32 39.25 55.83 42.77 55.83 47.11 C 55.83 51.44 52.32 54.96 47.98 54.96 C 43.64 54.96 40.13 51.44 40.13 47.11 C 40.13 42.77 43.64 39.25 47.98 39.25 Z" />
</svg>