<?xml version="1.0" encoding="utf-8"?>
<!-- Generator: Adobe Illustrator 18.1.0, SVG Export Plug-In . SVG Version: 6.00 Build 0)  -->
<svg version="1.1" id="Layer_1" xmlns:ev="http://www.w3.org/2001/xml-events"
	 xmlns="http://www.w3.org/2000/svg" xmlns:xlink="http://www.w3.org/1999/xlink" x="0px" y="0px" viewBox="-14.9 16.9 17.9 17.9"
	 enable-background="new -14.9 16.9 17.9 17.9" xml:space="preserve">
<path fill="#353535" d="M2.7,33.2l-3.4-3.4C0.4,28.5,1,26.8,1,24.9c0-4.4-3.6-8-8-8c-4.4,0-8,3.6-8,8c0,4.4,3.6,8,8,8
	c1.9,0,3.6-0.6,4.9-1.7l3.4,3.4c0.2,0.2,0.4,0.3,0.7,0.3c0.2,0,0.5-0.1,0.7-0.3C3,34.2,3,33.6,2.7,33.2z M-7,31
	c-3.3,0-6.1-2.7-6.1-6.1c0-3.3,2.7-6.1,6.1-6.1c3.3,0,6.1,2.7,6.1,6.1C-0.9,28.3-3.6,31-7,31z"/>
</svg>
