<?xml version="1.0" encoding="utf-8"?>
<!-- Generator: Avocode 2.6.0 - http://avocode.com -->
<svg height="47" width="89" xmlns:xlink="http://www.w3.org/1999/xlink" xmlns="http://www.w3.org/2000/svg" viewBox="0 0 89 47">
    <path fill="#ffffff" fill-rule="evenodd" d="M 43.36 46.94 C 43.36 46.94 39.18 46.94 39.18 46.94 C 39.18 46.94 39.18 -0.03 39.18 -0.03 C 39.18 -0.03 43.36 -0.03 43.36 -0.03 C 43.36 -0.03 43.36 46.94 43.36 46.94 M 32.74 8.51 C 32.74 8.51 36.97 8.51 36.97 8.51 C 36.97 8.51 36.97 38.33 36.97 38.33 C 36.97 38.33 32.74 38.33 32.74 38.33 C 32.74 38.33 32.74 8.51 32.74 8.51 M 49.89 38.36 C 49.89 38.36 45.67 38.36 45.67 38.36 C 45.67 38.36 45.67 8.53 45.67 8.53 C 45.67 8.53 49.89 8.53 49.89 8.53 C 49.89 8.53 49.89 38.36 49.89 38.36 M 19.88 12.79 C 19.88 12.79 24.05 12.79 24.05 12.79 C 24.05 12.79 24.05 34.05 24.05 34.05 C 24.05 34.05 19.88 34.05 19.88 34.05 C 19.88 34.05 19.88 12.79 19.88 12.79 M 56.3 14.95 C 56.3 14.95 56.3 31.93 56.3 31.93 C 56.3 31.93 52.08 31.93 52.08 31.93 C 52.08 31.93 52.08 14.95 52.08 14.95 C 52.08 14.95 56.3 14.95 56.3 14.95 M 75.59 31.93 C 75.59 31.93 71.42 31.93 71.42 31.93 C 71.42 31.93 71.42 14.95 71.42 14.95 C 71.42 14.95 75.59 14.95 75.59 14.95 C 75.59 14.95 75.59 31.93 75.59 31.93 M 17.61 29.79 C 17.61 29.79 13.44 29.79 13.44 29.79 C 13.44 29.79 13.44 17.1 13.44 17.1 C 13.44 17.1 17.61 17.1 17.61 17.1 C 17.61 17.1 17.61 29.79 17.61 29.79 M 30.51 17.1 C 30.51 17.1 30.51 29.79 30.51 29.79 C 30.51 29.79 26.3 29.79 26.3 29.79 C 26.3 29.79 26.3 17.1 26.3 17.1 C 26.3 17.1 30.51 17.1 30.51 17.1 M 62.77 29.79 C 62.77 29.79 58.56 29.79 58.56 29.79 C 58.56 29.79 58.56 17.1 58.56 17.1 C 58.56 17.1 62.77 17.1 62.77 17.1 C 62.77 17.1 62.77 29.79 62.77 29.79 M 77.85 28.72 C 77.85 28.72 77.85 18.16 77.85 18.16 C 77.85 18.16 82.08 18.16 82.08 18.16 C 82.08 18.16 82.08 28.72 82.08 28.72 C 82.08 28.72 77.85 28.72 77.85 28.72 M 11.19 27.65 C 11.19 27.65 6.96 27.65 6.96 27.65 C 6.96 27.65 6.96 19.24 6.96 19.24 C 6.96 19.24 11.19 19.24 11.19 19.24 C 11.19 19.24 11.19 27.65 11.19 27.65 M 69.22 27.65 C 69.22 27.65 65.01 27.65 65.01 27.65 C 65.01 27.65 65.01 19.24 65.01 19.24 C 65.01 19.24 69.22 19.24 69.22 19.24 C 69.22 19.24 69.22 27.65 69.22 27.65 M 0.54 21.36 C 0.54 21.36 4.77 21.36 4.77 21.36 C 4.77 21.36 4.77 25.51 4.77 25.51 C 4.77 25.51 0.54 25.51 0.54 25.51 C 0.54 25.51 0.54 21.36 0.54 21.36 M 88.52 21.37 C 88.52 21.37 88.52 25.51 88.52 25.51 C 88.52 25.51 84.3 25.51 84.3 25.51 C 84.3 25.51 84.3 21.37 84.3 21.37 C 84.3 21.37 88.52 21.37 88.52 21.37" />
</svg>