<?xml version="1.0" encoding="utf-8"?>
<!-- Generator: Avocode 2.6.0 - http://avocode.com -->
<svg height="68" width="100" xmlns:xlink="http://www.w3.org/1999/xlink" xmlns="http://www.w3.org/2000/svg" viewBox="0 0 100 68">
    <path fill="#ffffff" fill-rule="evenodd" d="M 99.47 31.93 C 99.74 31.68 100.21 31.38 99.92 30.85 C 99.61 30.45 99.62 31.05 99.11 30.94 C 99.76 30.11 98.68 29.53 98.75 28.61 C 98.36 28.61 97.94 28.64 97.76 28.43 C 97.71 27.72 97.85 27.2 98.21 26.91 C 99.03 27.28 100.1 26.72 99.65 25.83 C 99.07 25.85 97.59 26.24 97.4 25.2 C 97.94 25.23 98.03 24.81 98.57 24.85 C 98.53 23.95 99.65 23.51 99.74 22.79 C 99.85 21.92 99.15 21.86 98.93 21 C 98.8 20.7 99.3 20.38 99.29 19.92 C 98.41 19.51 97.94 20.23 97.4 20.46 C 97.26 20.16 96.73 20.23 96.41 20.1 C 96.23 19.86 96.24 19.44 96.05 19.2 C 95.28 19.09 95.05 18.84 94.43 19.29 C 94.03 19.07 94.05 18.42 93.63 18.22 C 92.96 18.12 93.14 18.87 92.55 18.85 C 92.09 18.38 91.08 18.45 90.84 17.77 C 90.21 17.71 89.85 17.92 89.22 17.86 C 89.09 17.66 89.16 17.26 88.95 17.14 C 88.47 17.08 88.18 17.22 87.87 17.32 C 87.74 17.78 88.2 18.3 87.78 18.49 C 87.17 18.66 87.01 17.89 86.61 17.59 C 85.7 17.57 85.37 16.98 84.99 16.43 C 85 16.13 85.14 15.98 85.08 15.62 C 84.89 15.48 84.49 15.56 84.27 15.44 C 84.21 15.15 84.11 14.89 84 14.64 C 83.67 14.64 83.34 14.64 83.01 14.64 C 82.36 15.87 80 15.39 79.51 16.79 C 79.13 16.31 78.4 15.84 77.8 16.34 C 77.54 15.96 77.28 15.6 76.99 15.26 C 75.57 15.05 74.91 15.58 74.29 16.16 C 74.13 15.57 73.82 15.13 73.21 14.99 C 73.2 14.55 73.03 14.27 72.94 13.92 C 73.73 13.05 72.51 11.99 72.31 11.23 C 72.34 10.9 72.67 10.87 72.58 10.42 C 72.08 10.19 72 10.2 71.41 10.34 C 71.22 10.05 71.3 9.49 71.14 9.17 C 70.03 8.95 69.76 9.59 68.8 9.53 C 68.63 8.85 67.06 8.95 66.74 8.99 C 66.74 8.63 66.92 8.45 66.92 8.09 C 66.84 7.9 66.34 8.13 66.29 7.92 C 66.9 7.09 65.97 6.34 65.66 5.86 C 66.1 5.61 66.75 5.57 67.28 5.41 C 67.28 5.11 67.28 4.81 67.28 4.51 C 66.47 3.7 65.14 3.41 65.39 1.55 C 64.59 0.84 63.58 -0.8 62.33 0.48 C 62.25 -0.18 61.03 0.28 60.53 0.03 C 60.07 0.41 59.6 0.78 59.09 1.11 C 58.12 1.07 57.51 0.43 56.12 0.57 C 56.06 1.98 55.76 3.2 54.23 2.9 C 54.07 2.77 54.13 2.41 53.78 2.45 C 52.73 2.54 51.98 2.14 51.18 2.36 C 50.89 2.44 50.71 2.86 50.46 2.9 C 50.49 2.89 50.07 2.65 49.83 2.63 C 49.4 2.6 49.24 2.81 48.93 2.72 C 48.79 2.85 48.85 3.18 48.84 3.44 C 47.36 4.49 46.02 6.97 47.31 8.99 C 47.17 9.18 46.94 9.28 46.86 9.53 C 46.91 9.15 46.37 9.36 46.23 9.17 C 46.3 7.6 44.26 7.29 43.09 8.01 C 42.86 7.9 42.98 7.46 42.54 7.56 C 41.7 7.62 41.61 8.42 40.66 8.36 C 40.21 7.66 40.38 6.45 39.67 6.3 C 38.8 6.12 39.12 7.16 38.05 6.93 C 37.79 7.28 37.62 7.7 37.33 8.01 C 37.3 7.62 37.23 7.28 37.15 6.93 C 36.69 6.86 35.94 6.55 35.71 7.02 C 35.51 6.6 35.28 6.2 34.81 6.04 C 34.56 6.88 33.46 6.91 33.01 6.22 C 32.35 6.37 32.84 7.22 32.29 7.38 C 32.38 7.07 32.57 6.82 32.38 6.49 C 31.58 6.12 31.1 6.01 30.32 6.4 C 30.33 5.67 29.61 5.66 29.68 4.87 C 29.08 4.68 28.73 4.9 28.16 4.96 C 27.47 4.72 27.09 4.17 26 4.34 C 25.74 4.27 25.83 3.85 25.46 3.89 C 24.62 4.01 24.31 3.6 23.93 3.26 C 23.13 3.05 22.52 3.31 21.68 3.26 C 20.97 3.22 20.25 2.65 19.52 2.63 C 19.24 2.63 18.79 2.93 18.26 2.99 C 16.63 3.17 14.87 2.45 14.4 3.53 C 14.32 3.86 14.56 4.01 14.4 4.16 C 13.83 4.43 13.53 4.97 12.87 5.14 C 12.27 4.56 10.71 4.25 10.53 5.23 C 10.44 5.76 11.03 6.12 11.07 6.75 C 10.9 7.01 10.69 7.21 10.62 7.56 C 11.73 8.37 11.9 10.58 12.6 11.5 C 12.22 11.42 12.09 11.59 11.97 11.77 C 12.01 12.72 12.81 12.91 12.6 14.1 C 12.32 14.36 12.07 14.64 11.88 15 C 11.35 14.8 10.85 15 10.35 15.09 C 9.68 16.35 8.34 16.83 7.38 17.77 C 6.17 18.97 5.25 20.39 3.97 21.54 C 4.04 22.81 4.59 23.68 3.97 24.76 C 4.13 25.11 4.73 25.49 4.6 25.84 C 4.11 25.59 3.72 25.45 2.98 25.3 C 2.84 25.43 2.9 25.76 2.89 26.01 C 1.93 26.54 1.58 27.69 1.27 28.88 C 0.92 28.89 0.71 29.04 0.47 29.15 C 0.22 29.59 0.16 30.22 0.2 30.94 C 0.75 31.01 1 31.39 1.09 31.93 C 1.09 31.95 1.09 31.99 1.09 32.01 C 1.24 32.14 1.23 32.41 1.36 32.55 C 1.6 32.55 1.84 32.55 2.09 32.55 C 2.18 32.96 2.41 33.24 2.44 33.72 C 2.78 34.03 3.79 33.69 3.79 34.34 C 4.11 34.64 3.38 34.76 3.7 35.06 C 4.48 35.33 5.31 34.92 5.68 34.16 C 6.21 34.59 6.64 35.12 7.3 35.42 C 7.99 35.04 8.99 35.64 9.46 36.05 C 9.7 35.96 9.93 35.86 10.27 35.87 C 11.12 36.77 12.02 36.04 13.33 36.14 C 13.64 37.05 14.56 37.35 14.94 38.2 C 15.49 38.33 15.65 38.32 16.29 38.29 C 16.83 37.73 16.89 37.1 17.55 36.85 C 18.29 36.58 19.22 36.94 20.16 36.85 C 20.93 36.79 21.73 36.35 22.5 36.59 C 22.87 36.06 23.27 35.56 23.48 34.88 C 24.58 34.9 24.63 34.54 25.91 34.53 C 26.2 34.27 26.25 33.78 26.36 33.36 C 26.68 33.46 26.75 33.81 27.17 33.81 C 27.53 33.87 27.39 33.43 27.71 33.45 C 27.9 33.64 28.21 33.73 28.61 33.72 C 29.25 32.91 30.27 33.06 31.58 33.18 C 31.95 33.71 32.3 34.26 33.01 34.44 C 33 34.66 33 34.87 33.11 34.97 C 33.69 34.8 33.65 35.27 34 35.33 C 34.26 35.29 34.29 35.01 34.63 35.06 C 34.7 35.45 34.18 35.27 34.27 35.69 C 34.45 35.87 34.61 36.02 34.9 35.87 C 34.87 36.26 35.05 36.43 35.35 36.5 C 35.65 36.34 35.57 35.82 35.98 35.78 C 36.44 35.8 36.79 35.93 37.15 36.05 C 37.28 36.98 38.05 38.15 39.04 37.39 C 39.41 37.77 39.07 38.18 39.13 38.56 C 39.16 38.74 39.41 38.87 39.4 39.09 C 39.36 40.11 38.35 41.05 39.04 41.78 C 40.23 41.67 39.89 43.09 40.84 43.22 C 41.1 43.15 41.05 42.49 41.38 42.77 C 41.43 43.29 40.84 43.57 41.2 44.11 C 40.88 44.26 40.69 44.32 40.84 44.74 C 40.86 45.02 41.36 44.81 41.47 45.01 C 41.22 45.18 41.3 45.67 41.29 46.08 C 41.98 46.47 42.8 46.72 43.36 47.25 C 43.32 48.21 43.54 48.94 43.09 49.4 C 43.29 49.91 43.9 50.02 44.17 50.47 C 43.74 50.49 43.18 50.38 43 50.65 C 42.93 50.12 42.64 49.81 42.19 49.67 C 42.01 49.97 41.67 50.11 41.56 50.47 C 41.14 50.29 41.16 49.67 40.75 49.49 C 40.3 49.82 40 49.69 39.58 49.76 C 39.59 49.45 39.48 49.27 39.31 49.13 C 38.63 49.01 37.91 49.58 37.42 49.94 C 37.46 51.05 37.41 51.7 37.96 52.27 C 37.72 52.56 37.35 53 37.6 53.52 C 37.25 53.73 36.69 53.74 36.35 53.97 C 36.44 55.35 35.29 55.49 34.73 56.21 C 34.7 56.86 35.22 57.21 34.73 57.64 C 34.04 57.45 32.98 57.29 32.93 58.18 C 33.55 58.57 33.43 59.37 34.01 59.79 C 34.67 60.28 35.65 60.34 36.61 60.6 C 36.78 60.41 36.67 59.94 36.7 59.61 C 37 59.7 36.99 60.11 37.42 60.06 C 38.27 59.17 40.71 58.04 41.56 59.7 C 41.64 60.3 41.33 60.72 41.74 60.96 C 42.53 60.55 43.04 58.46 41.83 58.09 C 42.05 57.67 41.31 57.01 41.74 56.39 C 41.78 56.97 42.17 57.21 42.64 57.37 C 42.65 56.99 43.12 57.08 43.18 56.74 C 43.15 56.51 42.96 56.43 42.91 56.21 C 43.12 56.2 43.17 56.36 43.45 56.3 C 43.59 55.99 43.54 55.49 43.9 55.4 C 45.12 56.08 45.95 54.22 46.69 53.34 C 46.68 53.01 46.15 52.74 46.33 52.53 C 46.52 52.7 46.67 52.91 46.96 52.98 C 47.71 52.42 47.92 51.31 48.57 50.65 C 48.59 50.11 48.7 49.89 48.57 49.4 C 49.67 49.38 50.52 48.32 51.54 49.04 C 51.96 49.01 52.1 48.7 52.44 48.59 C 52.59 48.78 52.88 48.82 53.07 48.95 C 53.23 48.81 53.26 48.54 53.52 48.5 C 53.81 48.66 54.15 48.77 54.51 48.86 C 54.76 48.66 55.09 48.54 55.23 48.23 C 55.75 49.34 57.06 48.77 57.75 49.49 C 57.59 49.99 57.1 49.49 56.67 49.4 C 55.66 49.19 54.46 49.35 53.88 48.95 C 53.43 49.19 52.94 48.95 52.71 49.04 C 52.62 49.48 53.25 49.92 53.61 50.2 C 53.97 50.27 53.83 49.83 54.15 49.85 C 54.59 50.16 55.23 50.21 55.59 50.39 C 55.32 51.15 53.95 50.29 54.06 51.46 C 54.28 51.77 54.88 51.63 55.14 51.46 C 56.29 52.1 57.08 53.11 58.65 53.34 C 59.7 52.45 61.82 53.12 62.6 52.36 C 63.35 52.54 63.49 53.32 64.49 53.25 C 64.63 53.09 64.59 52.75 64.76 52.63 C 64.71 53.25 64.93 53.59 65.03 54.06 C 65.26 54.17 65.47 53.86 65.48 54.06 C 64.71 54.61 63.59 54.8 62.96 55.49 C 62.78 55.44 62.67 55.23 62.51 55.4 C 62.28 56.12 61.32 56.02 60.71 56.57 C 60.56 56.7 60.46 57.03 60.26 57.19 C 59.6 57.75 58.22 57.94 58.47 59.25 C 58.75 59.51 59.05 59.74 59.63 59.7 C 61.4 58.1 62.27 61.54 63.95 60.42 C 64.93 60.91 65.46 61.64 65.12 62.75 C 65.02 63.08 64.55 63.2 64.49 63.55 C 64.4 64.05 64.87 64.55 64.67 65.08 C 64.25 65.28 63.77 65.43 63.59 65.88 C 63.96 66.38 64.36 66.85 65.3 66.78 C 65.53 68.02 67.07 67.38 67.82 67.76 C 68.25 67.37 68.84 67.45 69.26 67.14 C 69.74 66.77 69.87 65.85 70.7 65.88 C 70.86 63.99 72.58 63.63 73.75 62.75 C 74.54 62.78 74.95 62.44 75.37 62.12 C 75.37 62.06 75.37 62 75.37 61.94 C 75.41 61.74 75.81 61.9 76 61.85 C 75.99 59.93 78.11 60.17 78.79 61.31 C 79.79 61.34 80.15 60.57 81.13 61.04 C 81.42 60.56 82.32 60.68 82.57 60.15 C 81.99 59.66 82.24 58.57 82.66 58.09 C 83.29 58.17 83.66 58.18 83.74 57.55 C 83.12 56.69 81.17 56.82 79.87 56.93 C 79.67 57.21 79.62 57.64 79.33 57.82 C 78.78 57.79 78.82 57.19 78.43 57.01 C 77.87 57.91 77.05 58.57 75.91 58.89 C 75.23 58.37 74.3 58.55 73.84 57.91 C 74.64 56.57 73.14 55.46 71.95 55.22 C 72.06 54.61 72.86 54.69 72.94 54.06 C 72.59 53.34 72.08 52.01 72.4 51.19 C 73.48 51.56 73.71 50.34 74.29 49.94 C 74.46 50.16 74.73 50.27 75.1 50.29 C 75.49 49.7 75.88 49.1 76.63 48.86 C 77.07 47.99 78.22 46.93 79.42 47.07 C 79.85 47.12 79.88 47.57 80.32 47.43 C 80.71 46.41 82.26 45.58 83.38 46.35 C 83.7 45.28 84.66 44.83 85.53 44.29 C 85.8 44.35 85.85 44.64 86.25 44.56 C 86.61 44.02 86.9 43.42 87.24 42.86 C 88.14 43.14 89.13 42.49 90.3 42.5 C 90.26 42.81 90.33 43.01 90.66 42.95 C 90.99 42.65 91.01 42.05 91.47 41.88 C 91.13 41.94 91.03 41.77 91.02 41.52 C 91.07 41.03 91.56 40.97 91.56 40.44 C 91.48 40.25 90.99 40.47 90.93 40.26 C 91.39 39.7 90.96 38.8 91.2 38.02 C 92.09 37.75 93 37.48 93.54 36.86 C 93.77 36.49 93.6 35.72 93.99 35.51 C 95.83 35.42 97 35.43 99.02 35.24 C 99.46 34.06 99.08 33.19 99.47 31.93 Z" />
</svg>