<svg xmlns="http://www.w3.org/2000/svg" xmlns:xlink="http://www.w3.org/1999/xlink" preserveAspectRatio="xMidYMid" width="25.062" height="22.82" viewBox="0 0 25.062 22.82">
  <defs>
    <style>
      .cls-1 {
        fill: #d70000;
        fill-rule: evenodd;
      }
    </style>
  </defs>
  <path d="M24.759,10.111 L23.874,10.115 C23.713,10.116 23.584,9.988 23.579,9.828 C23.449,6.177 21.229,2.887 17.893,1.400 C17.746,1.335 17.676,1.168 17.736,1.019 L18.072,0.200 C18.135,0.046 18.313,-0.028 18.465,0.038 C22.340,1.751 24.918,5.572 25.055,9.807 C25.060,9.972 24.925,10.110 24.759,10.111 ZM22.101,9.822 C22.107,9.988 21.971,10.126 21.805,10.127 L20.918,10.132 C20.758,10.133 20.630,10.005 20.622,9.845 C20.503,7.382 19.009,5.168 16.770,4.135 C16.624,4.068 16.554,3.901 16.615,3.753 L16.951,2.933 C17.014,2.779 17.193,2.704 17.344,2.773 C20.121,4.033 21.971,6.776 22.101,9.822 ZM19.533,11.533 L19.533,14.535 L21.110,16.155 C21.250,16.298 21.328,16.491 21.328,16.690 L21.328,18.977 C21.328,19.388 20.995,19.721 20.584,19.721 L15.621,19.721 C15.617,21.365 14.175,22.806 12.531,22.806 C10.886,22.806 9.444,21.365 9.440,19.722 L4.477,19.722 C4.067,19.722 3.734,19.388 3.734,18.978 L3.734,16.690 C3.734,16.491 3.812,16.298 3.951,16.155 L5.529,14.535 L5.529,11.533 C5.529,8.540 7.299,5.968 9.954,4.928 C10.220,3.730 11.274,2.832 12.531,2.832 C13.787,2.832 14.841,3.730 15.108,4.928 C17.762,5.968 19.533,8.540 19.533,11.533 ZM12.531,21.318 C13.410,21.318 14.129,20.489 14.134,19.722 L10.928,19.722 C10.932,20.489 11.652,21.318 12.531,21.318 ZM13.685,6.050 C13.685,5.774 13.685,5.576 13.685,5.522 C13.685,4.881 13.172,4.320 12.531,4.320 C11.890,4.320 11.377,4.881 11.377,5.522 C11.377,5.576 11.377,5.774 11.377,6.050 C8.812,6.593 7.017,8.821 7.017,11.533 C7.017,11.854 7.017,13.377 7.017,15.140 L5.221,16.983 L5.221,18.234 L19.840,18.234 L19.840,16.983 L18.045,15.140 C18.045,13.376 18.045,11.934 18.045,11.533 C18.045,8.821 16.249,6.593 13.685,6.050 ZM4.439,9.845 C4.431,10.005 4.303,10.133 4.143,10.132 L3.257,10.127 C3.091,10.126 2.954,9.988 2.961,9.822 C3.090,6.776 4.941,4.033 7.717,2.773 C7.869,2.704 8.047,2.779 8.110,2.933 L8.447,3.753 C8.508,3.901 8.437,4.068 8.292,4.135 C6.053,5.168 4.559,7.382 4.439,9.845 ZM1.483,9.828 C1.477,9.988 1.349,10.116 1.188,10.115 L0.302,10.111 C0.137,10.110 0.001,9.972 0.006,9.807 C0.144,5.572 2.721,1.751 6.597,0.038 C6.748,-0.028 6.927,0.046 6.989,0.200 L7.325,1.019 C7.386,1.168 7.315,1.335 7.169,1.400 C3.832,2.887 1.612,6.177 1.483,9.828 Z" class="cls-1"/>
</svg>
