<svg xmlns="http://www.w3.org/2000/svg" xmlns:xlink="http://www.w3.org/1999/xlink" preserveAspectRatio="xMidYMid" width="29" height="29" viewBox="0 0 29 29">
  <defs>
    <style>
      .cls-1 {
        fill: #1c1c1c;
        opacity: 0.28;
        fill-rule: evenodd;
      }
    </style>
  </defs>
  <path d="M14.500,28.999 C6.491,28.999 -0.000,22.509 -0.000,14.499 C-0.000,6.491 6.491,-0.000 14.500,-0.000 C22.509,-0.000 29.000,6.491 29.000,14.499 C29.000,22.508 22.509,28.999 14.500,28.999 ZM15.017,2.601 L15.017,5.696 L13.291,5.696 L13.291,2.601 C8.113,3.020 3.021,8.112 2.602,13.982 L4.660,13.982 L4.660,15.708 L2.602,15.708 C3.021,20.887 8.113,25.979 13.291,26.397 L13.291,24.338 L15.017,24.338 L15.017,26.397 C20.886,25.979 25.979,20.887 26.397,15.708 L23.303,15.708 L23.303,13.982 L26.397,13.982 C25.979,8.112 20.886,3.020 15.017,2.601 ZM16.064,14.571 C16.064,15.474 15.332,16.206 14.429,16.206 C13.590,16.206 12.906,15.571 12.813,14.756 L8.777,9.418 L13.891,13.034 C14.061,12.975 14.240,12.936 14.429,12.936 C14.460,12.936 14.490,12.944 14.521,12.945 L22.283,6.609 L16.029,14.233 C16.051,14.342 16.064,14.454 16.064,14.571 Z" class="cls-1"/>
</svg>
