<svg xmlns="http://www.w3.org/2000/svg" xmlns:xlink="http://www.w3.org/1999/xlink" preserveAspectRatio="xMidYMid" width="19.656" height="18.72" viewBox="0 0 19.656 18.72">
  <defs>
    <style>
      .cls-1 {
        fill: #fff;
        fill-rule: evenodd;
      }
    </style>
  </defs>
  <path d="M16.852,9.352 L16.852,12.162 L14.979,12.162 L14.979,9.352 L12.169,9.352 L12.169,7.480 L14.979,7.480 L14.979,4.670 L16.852,4.670 L16.852,7.480 L19.661,7.480 L19.661,9.352 L16.852,9.352 ZM9.125,0.931 C10.364,0.931 11.001,2.737 11.001,4.218 C11.001,5.463 10.311,6.371 9.338,7.132 C8.386,7.875 8.206,8.186 8.206,8.817 C8.206,9.357 9.225,10.274 9.757,10.649 C11.313,11.752 11.817,12.775 11.817,14.481 C11.817,16.608 9.757,18.727 6.026,18.727 C2.755,18.727 -0.006,17.394 -0.006,15.266 C-0.006,13.105 2.512,11.024 5.784,11.023 C6.141,11.023 6.469,11.018 6.805,11.018 C6.358,10.582 6.005,10.057 6.005,9.399 C6.005,9.008 6.127,8.651 6.303,8.319 C6.125,8.332 5.943,8.374 5.756,8.374 C3.069,8.374 1.269,6.532 1.269,4.165 C1.269,1.848 3.755,-0.006 6.396,-0.006 C7.868,-0.006 12.169,-0.006 12.169,-0.006 L11.232,0.931 L9.125,0.931 ZM6.408,11.569 C4.146,11.544 2.120,12.947 2.120,14.632 C2.120,16.352 3.753,17.783 6.014,17.783 C9.194,17.783 10.303,16.439 10.303,14.719 C10.303,14.513 10.276,14.310 10.231,14.111 C9.981,13.139 9.101,12.657 7.873,11.802 C7.427,11.660 6.935,11.575 6.408,11.569 ZM8.883,4.171 C8.621,2.178 7.177,0.579 5.660,0.532 C4.143,0.487 3.125,2.012 3.386,4.007 C3.648,6.000 5.091,7.653 6.609,7.697 C8.127,7.742 9.145,6.164 8.883,4.171 Z" class="cls-1"/>
</svg>
