<svg xmlns="http://www.w3.org/2000/svg" xmlns:xlink="http://www.w3.org/1999/xlink" preserveAspectRatio="xMidYMid" width="18" height="12" viewBox="0 0 18 12">
  <defs>
    <style>
      .cls-1 {
        fill: #ab0621;
        fill-rule: evenodd;
      }
    </style>
  </defs>
  <path d="M7.000,6.999 L7.000,4.999 L18.000,4.999 L18.000,6.999 L7.000,6.999 ZM13.000,-0.001 L18.000,-0.001 L18.000,1.999 L13.000,1.999 L13.000,-0.001 ZM-0.000,-0.001 L11.000,-0.001 L11.000,1.999 L-0.000,1.999 L-0.000,-0.001 ZM5.000,4.999 L5.000,6.999 L0.000,6.999 L0.000,4.999 L5.000,4.999 ZM11.000,11.999 L-0.000,11.999 L-0.000,9.999 L11.000,9.999 L11.000,11.999 ZM18.000,11.999 L13.000,11.999 L13.000,9.999 L18.000,9.999 L18.000,11.999 Z" class="cls-1"/>
</svg>
