<svg xmlns="http://www.w3.org/2000/svg" xmlns:xlink="http://www.w3.org/1999/xlink" preserveAspectRatio="xMidYMid" width="18.781" height="15.03" viewBox="0 0 18.781 15.03">
  <defs>
    <style>
      .cls-1 {
        fill: #fff;
        fill-rule: evenodd;
      }
    </style>
  </defs>
  <path d="M16.853,3.746 C16.860,3.906 16.866,4.073 16.866,4.235 C16.866,9.243 12.992,15.017 5.908,15.017 C3.733,15.017 1.707,14.391 0.004,13.315 C0.304,13.353 0.612,13.370 0.922,13.370 C2.728,13.370 4.390,12.762 5.705,11.747 C4.020,11.714 2.597,10.619 2.108,9.115 C2.344,9.159 2.584,9.182 2.832,9.182 C3.184,9.182 3.525,9.133 3.847,9.049 C2.085,8.700 0.758,7.169 0.758,5.332 C0.758,5.315 0.758,5.300 0.759,5.285 C1.277,5.568 1.871,5.738 2.502,5.760 C1.470,5.078 0.787,3.919 0.787,2.606 C0.787,1.911 0.979,1.260 1.311,0.700 C3.211,2.991 6.047,4.500 9.248,4.661 C9.184,4.381 9.150,4.090 9.150,3.795 C9.150,1.701 10.872,0.007 13.000,0.007 C14.107,0.007 15.109,0.467 15.811,1.202 C16.689,1.032 17.513,0.717 18.257,0.284 C17.969,1.168 17.359,1.911 16.562,2.378 C17.342,2.286 18.083,2.084 18.775,1.781 C18.258,2.541 17.605,3.208 16.853,3.746 Z" class="cls-1"/>
</svg>
